<svg xmlns="http://www.w3.org/2000/svg" xmlns:xlink="http://www.w3.org/1999/xlink" width="196" zoomAndPan="magnify" viewBox="0 0 147 147.000002" height="196" preserveAspectRatio="xMidYMid meet" version="1.0"><defs><g/><clipPath id="3522d84127"><path d="M 5.390625 7.34375 L 134.683594 7.34375 L 134.683594 138.394531 L 5.390625 138.394531 Z M 5.390625 7.34375 " clip-rule="nonzero"/></clipPath><clipPath id="c3c3545c64"><path d="M 3.890625 106 L 143.1875 106 L 143.1875 109.292969 L 3.890625 109.292969 Z M 3.890625 106 " clip-rule="nonzero"/></clipPath><clipPath id="37ab4cd0ff"><path d="M 3.890625 77.210938 L 143.1875 77.210938 L 143.1875 80.507812 L 3.890625 80.507812 Z M 3.890625 77.210938 " clip-rule="nonzero"/></clipPath></defs><path fill="#000000" d="M 43.125 57.847656 C 43.125 57.847656 39.171875 57.902344 39.015625 58.511719 C 38.859375 59.117188 38.65625 59.632812 40.71875 59.351562 C 42.785156 59.078125 43.917969 58.191406 43.773438 58.050781 C 43.628906 57.902344 43.125 57.847656 43.125 57.847656 Z M 27.695312 59.976562 C 27.695312 59.976562 26.296875 60 26.265625 60.289062 C 26.238281 60.582031 26.347656 60.90625 26.863281 60.84375 C 27.378906 60.777344 28.144531 60.359375 28.054688 60.199219 C 27.957031 60.039062 27.695312 59.976562 27.695312 59.976562 Z M 14.167969 66.292969 C 22.554688 63.566406 25.835938 75.410156 19.929688 79.476562 C 21.691406 79.5625 22.996094 79.808594 23.910156 79.136719 C 25.96875 77.636719 27.171875 72.011719 24.585938 68.253906 C 23.761719 66.101562 20.65625 63.460938 17.234375 64.023438 C 13.691406 64.605469 11.945312 67.714844 11.945312 67.714844 C 11.945312 67.714844 11.945312 67.714844 12.265625 67.765625 C 12.476562 67.800781 12.75 67.003906 14.167969 66.292969 Z M 69.914062 65.015625 C 77.628906 64.664062 79.507812 73.042969 77.578125 79.214844 L 83.824219 79.136719 C 86.84375 68.164062 81.09375 56.371094 68.503906 58.140625 C 63.007812 58.914062 59.8125 63.136719 58.746094 64.574219 C 58.113281 65.4375 58.542969 65.507812 59.246094 64.832031 C 60.304688 63.804688 62.730469 61.503906 66.707031 60.332031 C 71.9375 58.792969 75.765625 60.410156 78.355469 63.703125 C 76.078125 62.1875 72.488281 61.421875 69.230469 62.167969 C 62.832031 63.628906 58.484375 69.589844 59.058594 78.933594 C 59.105469 79.695312 62.707031 79.105469 62.707031 79.105469 C 62.707031 79.105469 62.101562 77.703125 62.082031 75.328125 C 62.027344 69.5 64.9375 65.417969 69.914062 65.015625 Z M 112.511719 77.875 C 112.511719 77.875 122.511719 77.339844 125.421875 76.285156 C 126.328125 75.957031 127.070312 75.425781 127.664062 74.855469 C 121.238281 76.726562 96.503906 75.816406 96.503906 75.816406 C 96.503906 75.816406 94.703125 76.152344 94.625 75.210938 C 94.546875 74.269531 96.910156 67.3125 98.839844 65.082031 C 100.171875 63.535156 106.445312 63.429688 108.261719 64.253906 C 109.320312 64.734375 110.484375 66.519531 111.910156 66.675781 C 113.339844 66.832031 123.765625 67.09375 125.269531 66.449219 C 126.777344 65.808594 126.988281 64.984375 127.863281 64.816406 C 128.734375 64.648438 131.722656 64.355469 131.957031 64.570312 C 132.109375 64.703125 132.277344 67.675781 131.40625 70.445312 C 131.199219 71.191406 129.890625 75.457031 126.320312 77.285156 C 122.410156 79.289062 117.804688 79.449219 117.804688 79.449219 Z M 9.367188 68.320312 C 9.367188 68.320312 11.550781 61.953125 13.003906 60.84375 C 14.460938 59.734375 15.820312 59.90625 17.25 58.457031 C 18.679688 57.007812 23.992188 49.515625 25.023438 49.039062 C 25.210938 48.957031 26.074219 48.621094 27.382812 48.140625 C 26.832031 49.8125 25.085938 55.132812 25.355469 55.265625 C 25.625 55.402344 27.789062 49.574219 28.582031 47.703125 C 31.523438 46.628906 35.859375 45.097656 39.9375 43.773438 C 38.976562 45.898438 37.160156 53.40625 37.160156 53.40625 C 37.160156 53.40625 37.160156 53.40625 37.230469 53.523438 C 37.269531 53.597656 39.671875 46.339844 41.519531 43.269531 C 45.910156 41.878906 49.730469 40.851562 50.753906 41.074219 C 52.675781 41.492188 55.722656 44.914062 58.085938 47.613281 C 57.617188 47.207031 57.199219 46.886719 56.90625 46.761719 C 55.765625 46.257812 51.484375 46.652344 50.53125 47.257812 C 49.582031 47.871094 50.238281 49.921875 50.238281 49.921875 C 50.238281 49.921875 50.53125 50.402344 51.261719 50.554688 C 51.984375 50.714844 54.789062 50.292969 55.953125 50.132812 C 56.65625 50.039062 57.667969 50.402344 58.351562 50.699219 C 48.605469 52.417969 22.21875 57.867188 22.21875 57.867188 C 22.21875 57.867188 20.371094 58.363281 20.621094 58.523438 C 20.761719 58.613281 44.21875 54.886719 65.289062 53.113281 C 71.515625 52.585938 77.628906 52.402344 82.773438 52.367188 C 82.800781 52.480469 82.832031 52.597656 82.875 52.722656 C 83.21875 53.722656 88.109375 58.8125 90.914062 59.605469 C 93.71875 60.394531 98.875 59.710938 98.769531 59.472656 C 98.664062 59.234375 95.09375 59.371094 92.792969 58.546875 C 90.488281 57.730469 86.523438 53.855469 86.3125 53.140625 C 86.222656 52.84375 86.320312 52.578125 86.460938 52.367188 C 88.519531 52.375 90.34375 52.40625 91.851562 52.441406 C 93.011719 52.664062 94.234375 52.984375 95.382812 53.433594 C 99.511719 55.042969 103.160156 58.523438 103.050781 58.917969 C 102.949219 59.3125 102.261719 59.371094 102.261719 59.371094 C 102.261719 59.371094 103.871094 59.734375 104.007812 58.496094 C 104.117188 57.472656 102.171875 54.289062 101.402344 53.183594 C 102.167969 53.367188 103.535156 53.75 104.058594 54.25 C 104.800781 54.964844 107.945312 61.054688 109.585938 61.871094 C 111.226562 62.691406 128.390625 62.980469 128.972656 62.054688 C 129.554688 61.132812 126.0625 53.539062 126.0625 53.539062 C 126.0625 53.539062 118.210938 51.636719 108.160156 51.007812 C 107.539062 50.96875 106.902344 50.925781 106.246094 50.890625 C 106.179688 50.886719 106.117188 50.878906 106.042969 50.875 C 102.628906 50.648438 87.769531 50.042969 78.9375 50.285156 C 74.828125 50.402344 66.644531 51.203125 63.894531 48.207031 C 63.125 47.371094 58.617188 43.328125 55.375 40.699219 L 69.09375 48.132812 L 94.484375 48.605469 C 94.484375 48.605469 90.410156 45.070312 85.96875 43.222656 C 80.125 40.796875 58.949219 38.273438 51.789062 38.359375 C 51.453125 38.332031 51.058594 38.351562 50.65625 38.402344 L 50.652344 38.402344 C 49.355469 38.566406 47.953125 39.019531 47.953125 39.019531 C 47.953125 39.019531 24.8125 47.40625 23.574219 48.566406 C 22.328125 49.726562 16.773438 57.796875 15.898438 58.0625 C 15.027344 58.324219 13.015625 58.511719 12.144531 59.882812 C 11.625 60.695312 9.886719 64.351562 9.253906 66.511719 C 8.824219 67.984375 9.367188 68.320312 9.367188 68.320312 " fill-opacity="1" fill-rule="evenodd"/><path stroke-linecap="round" transform="matrix(0.0300674, 0, 0, -0.0299859, 3.888878, 138.393231)" fill="none" stroke-linejoin="round" d="M 1304.938091 2686.110864 C 1304.938091 2686.110864 1173.462729 2684.287093 1168.266075 2663.965072 C 1163.06942 2643.773322 1156.313769 2626.577766 1224.90961 2635.95716 C 1293.635367 2645.076015 1331.311113 2674.64716 1326.504208 2679.336857 C 1321.697302 2684.287093 1304.938091 2686.110864 1304.938091 2686.110864 Z M 791.768448 2615.114062 C 791.768448 2615.114062 745.25839 2614.332446 744.219059 2604.692513 C 743.309644 2594.922311 746.947302 2584.109954 764.096263 2586.194264 C 781.245223 2588.408843 806.70883 2602.347665 803.720754 2607.688708 C 800.472845 2613.029752 791.768448 2615.114062 791.768448 2615.114062 Z M 341.868076 2404.468505 C 620.798512 2495.396519 729.928259 2100.419816 533.494714 1964.809411 C 592.086995 1961.943485 635.479061 1953.736515 665.879491 1976.142845 C 734.345415 2026.16628 774.359656 2213.75416 688.355022 2339.073286 C 660.942669 2410.851704 557.659158 2498.913792 443.852422 2480.155004 C 326.018279 2460.744869 267.945664 2357.050458 267.945664 2357.050458 C 267.945664 2357.050458 267.945664 2357.050458 278.598806 2355.356956 C 285.61429 2354.184532 294.708435 2380.759481 341.868076 2404.468505 Z M 2195.904524 2447.066586 C 2452.489345 2458.790829 2514.979117 2179.363049 2450.800432 1973.537458 L 2658.5367 1976.142845 C 2758.96205 2342.069481 2567.725161 2735.352682 2149.004716 2676.340662 C 1966.21239 2650.547328 1859.940803 2509.726149 1824.473636 2461.787024 C 1803.427184 2432.997495 1817.717985 2430.652647 1841.10293 2453.189246 C 1876.310265 2487.450088 1956.988328 2564.178742 2089.243188 2603.25955 C 2263.201201 2654.585678 2390.519239 2600.654163 2476.653789 2490.837091 C 2400.912548 2541.381604 2281.519408 2566.914398 2173.16916 2542.03295 C 1960.366154 2493.312209 1815.769239 2294.521164 1834.866945 1982.916852 C 1836.425941 1957.514327 1956.20883 1977.185 1956.20883 1977.185 C 1956.20883 1977.185 1936.071793 2023.951701 1935.422211 2103.155473 C 1933.603382 2297.517359 2030.391074 2433.648842 2195.904524 2447.066586 Z M 3612.642486 2018.219849 C 3612.642486 2018.219849 3945.228381 2036.066752 4042.016073 2071.239479 C 4072.15667 2082.182105 4096.840779 2099.898739 4116.588067 2118.918065 C 3902.875646 2056.519041 3080.245222 2086.871802 3080.245222 2086.871802 C 3080.245222 2086.871802 3020.353777 2075.668637 3017.75545 2107.063553 C 3015.157123 2138.458469 3093.756524 2370.468202 3157.935208 2444.852007 C 3202.236689 2496.438674 3410.882371 2499.955947 3471.293481 2472.469112 C 3506.500816 2456.44598 3545.215893 2396.912882 3592.635366 2391.702108 C 3640.184756 2386.491333 3986.931534 2377.763286 4036.949335 2399.257731 C 4087.097052 2420.621906 4094.112536 2448.108741 4123.213802 2453.710324 C 4152.185151 2459.311906 4251.57117 2469.082108 4259.366152 2461.917293 C 4264.432891 2457.488135 4270.019294 2358.353151 4241.047945 2265.992174 C 4234.162377 2241.110726 4190.640395 2098.856584 4071.896837 2037.890523 C 3941.850556 1971.06234 3788.679161 1965.721296 3788.679161 1965.721296 Z M 182.200863 2336.858707 C 182.200863 2336.858707 254.824111 2549.197765 303.152999 2586.194264 C 351.611803 2623.190762 396.822698 2617.458911 444.372088 2665.788844 C 491.921478 2714.118777 668.607734 2963.975411 702.905655 2979.868273 C 709.14164 2982.60393 737.853157 2993.807095 781.375139 3009.830226 C 763.056932 2954.07494 704.984317 2776.64807 713.948546 2772.218912 C 722.912775 2767.659484 794.886441 2962.021371 821.259463 3024.420395 C 919.086486 3060.244469 1063.293652 3111.310059 1198.926337 3155.471372 C 1166.966911 3084.60484 1106.555801 2834.227128 1106.555801 2834.227128 C 1106.555801 2834.227128 1106.555801 2834.227128 1108.894296 2830.319047 C 1110.19346 2827.843929 1190.092024 3069.884402 1251.542465 3172.27612 C 1397.568459 3218.652012 1524.626665 3252.912854 1558.664752 3245.487501 C 1622.583604 3231.548679 1723.918369 3117.432719 1802.51777 3027.41659 C 1786.927806 3040.964604 1773.026755 3051.646691 1763.283028 3055.815311 C 1725.347449 3072.620059 1582.959113 3059.462853 1551.259519 3039.271102 C 1519.689843 3018.818812 1541.515792 2950.427398 1541.515792 2950.427398 C 1541.515792 2950.427398 1551.259519 2934.404266 1575.55388 2929.323761 C 1599.588407 2923.982717 1692.868358 2938.051808 1731.583434 2943.392852 C 1754.96838 2946.519317 1788.616719 2934.404266 1811.352083 2924.503795 C 1487.210751 2867.185276 609.625704 2685.459517 609.625704 2685.459517 C 609.625704 2685.459517 548.175264 2668.915308 556.489911 2663.574264 C 561.1669 2660.578069 1341.314673 2784.85504 2042.083547 2843.99733 C 2249.170233 2861.583693 2452.489345 2867.706353 2623.589198 2868.878778 C 2624.498612 2865.100966 2625.537943 2861.192885 2626.967023 2857.024266 C 2638.399664 2823.675309 2801.054953 2653.934332 2894.334903 2627.489651 C 2987.614853 2601.17524 3159.104455 2623.972379 3155.596713 2631.91881 C 3152.088972 2639.865241 3033.345414 2635.305813 2956.824675 2662.792648 C 2880.174019 2690.018945 2748.308909 2819.246151 2741.293425 2843.085444 C 2738.305348 2852.985916 2741.553258 2861.844232 2746.230247 2868.878778 C 2814.696171 2868.618239 2875.367114 2867.576084 2925.514831 2866.40366 C 2964.099991 2858.978306 3004.763813 2848.296219 3042.959225 2833.315242 C 3180.280823 2779.644265 3301.622708 2663.574264 3297.98505 2650.417059 C 3294.607224 2637.259853 3271.741944 2635.305813 3271.741944 2635.305813 C 3271.741944 2635.305813 3325.267486 2623.190762 3329.814559 2664.48615 C 3333.452217 2698.616723 3268.753868 2804.786252 3243.160344 2841.652481 C 3268.623951 2835.529821 3314.094679 2822.763424 3331.503472 2806.088946 C 3356.187581 2782.249652 3460.770255 2579.159718 3515.335129 2551.933422 C 3569.900002 2524.576856 4140.752511 2514.936923 4160.110049 2545.810762 C 4179.467588 2576.554331 4063.322357 2829.797969 4063.322357 2829.797969 C 4063.322357 2829.797969 3802.190463 2893.239148 3467.915655 2914.212515 C 3447.258953 2915.515209 3426.082586 2916.948172 3404.256636 2918.120596 C 3402.048058 2918.250866 3399.969396 2918.511404 3397.500985 2918.641674 C 3283.954082 2926.197297 2789.752229 2946.389048 2496.011327 2938.312347 C 2359.339311 2934.404266 2087.164526 2907.699047 1995.703405 3007.615647 C 1970.109881 3035.493291 1820.186395 3170.322079 1712.355812 3257.99336 L 2168.622087 3010.090765 L 3013.078461 2994.328172 C 3013.078461 2994.328172 2877.575692 3112.221944 2729.860785 3173.839352 C 2535.505902 3254.736626 1831.229287 3338.890633 1593.092589 3336.024707 C 1581.919782 3336.936592 1568.798229 3336.285246 1555.416843 3334.591744 L 1555.286927 3334.591744 C 1512.154694 3329.120431 1465.514718 3314.009185 1465.514718 3314.009185 C 1465.514718 3314.009185 695.890171 3034.320866 654.706683 2995.630866 C 613.263363 2956.940866 428.522291 2687.804366 399.421026 2678.946049 C 370.449676 2670.218002 303.542748 2663.965072 274.571399 2618.240527 C 257.292522 2591.1445 199.479739 2469.212378 178.433288 2397.173421 C 164.142488 2348.061872 182.200863 2336.858707 182.200863 2336.858707 Z M 182.200863 2336.858707 " stroke="#000000" stroke-width="2.268" stroke-opacity="1" stroke-miterlimit="10"/><g clip-path="url(#3522d84127)"><path fill="#ff9d00" d="M 10.933594 55.183594 C 7.878906 42.574219 5.570312 32.460938 5.65625 31.082031 C 6.3125 20.625 19.351562 13.753906 37.054688 10.269531 C 46.964844 8.320312 58.503906 7.339844 70.0625 7.339844 C 81.617188 7.339844 93.152344 8.3125 103.0625 10.269531 C 120.746094 13.75 133.761719 20.613281 134.417969 31.082031 C 134.496094 32.308594 132.683594 40.410156 130.140625 51.027344 C 127.96875 50.367188 125.324219 49.652344 122.554688 48.949219 C 124.878906 39.410156 126.5 32.367188 126.453125 31.546875 C 126.070312 25.433594 115.699219 20.875 101.535156 18.085938 C 92.046875 16.21875 81.046875 15.285156 70.0625 15.285156 C 59.082031 15.285156 48.078125 16.222656 38.585938 18.085938 C 24.394531 20.882812 14.003906 25.441406 13.621094 31.546875 C 13.574219 32.363281 15.171875 39.304688 17.464844 48.738281 L 16.59375 50.578125 C 15.964844 51.917969 13.105469 53.839844 11.234375 54.953125 C 11.132812 55.011719 11.035156 55.085938 10.933594 55.183594 Z M 67.957031 137.8125 L 26.878906 113.882812 C 25.808594 113.257812 25.136719 112.21875 24.949219 111.085938 C 24.800781 110.503906 24.457031 109.160156 23.960938 107.222656 L 32.152344 107.125 L 32.332031 107.828125 L 70.035156 129.789062 L 107.742188 107.828125 L 108.15625 106.21875 L 116.398438 106.121094 C 115.554688 109.414062 115.046875 111.386719 115.039062 111.417969 C 114.761719 112.492188 114.074219 113.351562 113.1875 113.867188 L 113.195312 113.882812 L 72.050781 137.847656 C 70.738281 138.613281 69.171875 138.546875 67.957031 137.8125 " fill-opacity="1" fill-rule="nonzero"/></g><path fill="#000000" d="M 126.355469 54.933594 C 126.433594 54.964844 127.980469 55.292969 128.863281 56.414062 C 129.753906 57.535156 130.210938 58.96875 130.371094 58.917969 C 130.53125 58.867188 129.949219 55.742188 128.691406 54.683594 C 127.4375 53.632812 125.546875 53.417969 125.546875 53.417969 C 125.546875 53.417969 125.492188 54.527344 125.546875 54.632812 C 125.597656 54.738281 126.355469 54.933594 126.355469 54.933594 " fill-opacity="1" fill-rule="evenodd"/><path fill="#ffffff" d="M 116.417969 60.671875 C 116.417969 60.671875 113.242188 54.296875 113.4375 53.734375 C 113.632812 53.167969 114.175781 53.605469 114.363281 53.820312 C 114.554688 54.035156 116.835938 60.71875 116.6875 60.785156 C 116.53125 60.847656 116.417969 60.671875 116.417969 60.671875 Z M 121.023438 61.125 C 121.023438 61.125 117.84375 54.75 118.042969 54.183594 C 118.238281 53.621094 118.785156 54.058594 118.972656 54.273438 C 119.160156 54.484375 121.445312 61.171875 121.292969 61.234375 C 121.140625 61.296875 121.023438 61.125 121.023438 61.125 Z M 125.480469 60.933594 C 125.480469 60.933594 122.792969 55.023438 123.03125 54.5 C 123.265625 53.976562 123.78125 54.378906 123.957031 54.578125 C 124.125 54.777344 125.894531 60.976562 125.734375 61.035156 C 125.578125 61.097656 125.480469 60.933594 125.480469 60.933594 Z M 112.144531 60.546875 C 112.144531 60.546875 108.542969 54.367188 108.703125 53.792969 C 108.859375 53.226562 109.433594 53.625 109.636719 53.832031 C 109.839844 54.035156 112.5625 60.570312 112.414062 60.640625 C 112.269531 60.714844 112.144531 60.546875 112.144531 60.546875 " fill-opacity="1" fill-rule="evenodd"/><g clip-path="url(#c3c3545c64)"><path fill="#ff9d00" d="M 3.890625 106.015625 L 143.1875 106.015625 C 143.1875 106.015625 135.117188 107.601562 120.226562 108.335938 C 107.5 108.96875 81.722656 109.058594 74.5 109.074219 L 74.496094 109.074219 C 74.496094 109.074219 74.15625 109.074219 73.539062 109.074219 C 72.917969 109.074219 72.578125 109.074219 72.578125 109.074219 L 72.574219 109.074219 C 65.351562 109.058594 39.578125 108.96875 26.851562 108.335938 C 11.957031 107.601562 3.890625 106.015625 3.890625 106.015625 " fill-opacity="1" fill-rule="evenodd"/></g><g clip-path="url(#37ab4cd0ff)"><path fill="#ff9d00" d="M 3.890625 80.476562 L 143.1875 80.476562 C 143.1875 80.476562 135.117188 78.894531 120.226562 78.15625 C 107.5 77.527344 81.722656 77.4375 74.5 77.417969 L 74.496094 77.417969 C 74.496094 77.417969 74.15625 77.417969 73.539062 77.417969 C 72.917969 77.417969 72.578125 77.417969 72.578125 77.417969 L 72.574219 77.417969 C 65.351562 77.4375 39.578125 77.527344 26.851562 78.15625 C 11.957031 78.894531 3.890625 80.476562 3.890625 80.476562 " fill-opacity="1" fill-rule="evenodd"/></g><g fill="#ffffff" fill-opacity="1"><g transform="translate(9.882257, 98.8407)"><g><path d="M 10.59375 0 L 7.015625 -5.640625 C 6.898438 -5.617188 6.726562 -5.609375 6.5 -5.609375 L 4.25 -5.609375 L 4.25 0 L 2.203125 0 L 2.203125 -15.265625 L 6.265625 -15.265625 C 7.304688 -15.265625 8.234375 -15.082031 9.046875 -14.71875 C 9.867188 -14.351562 10.507812 -13.8125 10.96875 -13.09375 C 11.4375 -12.382812 11.671875 -11.53125 11.671875 -10.53125 C 11.671875 -9.59375 11.460938 -8.726562 11.046875 -7.9375 C 10.628906 -7.144531 9.992188 -6.546875 9.140625 -6.140625 L 12.984375 0 Z M 6.453125 -7.59375 C 7.554688 -7.59375 8.347656 -7.878906 8.828125 -8.453125 C 9.316406 -9.035156 9.5625 -9.703125 9.5625 -10.453125 C 9.5625 -10.898438 9.457031 -11.34375 9.25 -11.78125 C 9.050781 -12.21875 8.726562 -12.578125 8.28125 -12.859375 C 7.84375 -13.148438 7.285156 -13.296875 6.609375 -13.296875 L 4.25 -13.296875 L 4.25 -7.59375 Z M 6.453125 -7.59375 "/></g></g></g><g fill="#ffffff" fill-opacity="1"><g transform="translate(23.808142, 98.8407)"><g><path d="M 5.8125 -1.484375 C 6.539062 -1.484375 7.25 -1.734375 7.9375 -2.234375 L 8.84375 -0.78125 C 8.375 -0.46875 7.867188 -0.222656 7.328125 -0.046875 C 6.785156 0.128906 6.265625 0.21875 5.765625 0.21875 C 4.796875 0.21875 3.945312 0.0195312 3.21875 -0.375 C 2.488281 -0.78125 1.925781 -1.335938 1.53125 -2.046875 C 1.144531 -2.753906 0.953125 -3.550781 0.953125 -4.4375 C 0.953125 -5.289062 1.164062 -6.070312 1.59375 -6.78125 C 2.019531 -7.5 2.601562 -8.0625 3.34375 -8.46875 C 4.09375 -8.882812 4.914062 -9.09375 5.8125 -9.09375 C 6.945312 -9.09375 7.894531 -8.757812 8.65625 -8.09375 C 9.425781 -7.425781 9.953125 -6.492188 10.234375 -5.296875 L 3.3125 -2.875 C 3.5625 -2.4375 3.898438 -2.09375 4.328125 -1.84375 C 4.765625 -1.601562 5.257812 -1.484375 5.8125 -1.484375 Z M 5.65625 -7.53125 C 4.851562 -7.53125 4.191406 -7.25 3.671875 -6.6875 C 3.148438 -6.125 2.890625 -5.40625 2.890625 -4.53125 C 2.890625 -4.320312 2.894531 -4.160156 2.90625 -4.046875 L 8 -5.9375 C 7.789062 -6.414062 7.488281 -6.800781 7.09375 -7.09375 C 6.707031 -7.382812 6.226562 -7.53125 5.65625 -7.53125 Z M 5.65625 -7.53125 "/></g></g></g><g fill="#ffffff" fill-opacity="1"><g transform="translate(34.780049, 98.8407)"><g><path d="M 12.921875 -9.09375 C 13.765625 -9.09375 14.4375 -8.851562 14.9375 -8.375 C 15.4375 -7.894531 15.695312 -7.265625 15.71875 -6.484375 L 15.71875 0 L 13.765625 0 L 13.765625 -5.765625 C 13.722656 -6.785156 13.257812 -7.328125 12.375 -7.390625 C 11.863281 -7.390625 11.40625 -7.238281 11 -6.9375 C 10.601562 -6.632812 10.289062 -6.234375 10.0625 -5.734375 C 9.84375 -5.242188 9.722656 -4.71875 9.703125 -4.15625 L 9.703125 0 L 7.71875 0 L 7.71875 -5.765625 C 7.675781 -6.785156 7.203125 -7.328125 6.296875 -7.390625 C 5.796875 -7.390625 5.34375 -7.238281 4.9375 -6.9375 C 4.539062 -6.632812 4.226562 -6.234375 4 -5.734375 C 3.78125 -5.234375 3.671875 -4.703125 3.671875 -4.140625 L 3.671875 0 L 1.703125 0 L 1.703125 -8.734375 L 3.484375 -8.734375 L 3.625 -7.09375 C 3.96875 -7.726562 4.429688 -8.21875 5.015625 -8.5625 C 5.597656 -8.914062 6.265625 -9.09375 7.015625 -9.09375 C 7.710938 -9.09375 8.300781 -8.925781 8.78125 -8.59375 C 9.257812 -8.269531 9.566406 -7.816406 9.703125 -7.234375 C 10.078125 -7.816406 10.546875 -8.269531 11.109375 -8.59375 C 11.671875 -8.925781 12.273438 -9.09375 12.921875 -9.09375 Z M 12.921875 -9.09375 "/></g></g></g><g fill="#ffffff" fill-opacity="1"><g transform="translate(52.187414, 98.8407)"><g><path d="M 0.953125 -4.453125 C 0.953125 -5.304688 1.160156 -6.085938 1.578125 -6.796875 C 1.992188 -7.515625 2.566406 -8.078125 3.296875 -8.484375 C 4.035156 -8.890625 4.875 -9.09375 5.8125 -9.09375 C 6.738281 -9.09375 7.5625 -8.890625 8.28125 -8.484375 C 9.007812 -8.078125 9.570312 -7.519531 9.96875 -6.8125 C 10.375 -6.113281 10.578125 -5.328125 10.578125 -4.453125 C 10.578125 -3.578125 10.375 -2.785156 9.96875 -2.078125 C 9.570312 -1.367188 9.003906 -0.804688 8.265625 -0.390625 C 7.535156 0.015625 6.703125 0.21875 5.765625 0.21875 C 4.847656 0.21875 4.023438 0.0234375 3.296875 -0.359375 C 2.566406 -0.753906 1.992188 -1.300781 1.578125 -2 C 1.160156 -2.707031 0.953125 -3.523438 0.953125 -4.453125 Z M 2.9375 -4.4375 C 2.9375 -3.882812 3.054688 -3.375 3.296875 -2.90625 C 3.546875 -2.445312 3.882812 -2.082031 4.3125 -1.8125 C 4.738281 -1.550781 5.210938 -1.421875 5.734375 -1.421875 C 6.554688 -1.421875 7.234375 -1.707031 7.765625 -2.28125 C 8.304688 -2.851562 8.578125 -3.570312 8.578125 -4.4375 C 8.578125 -5.289062 8.304688 -6.007812 7.765625 -6.59375 C 7.234375 -7.175781 6.554688 -7.46875 5.734375 -7.46875 C 5.203125 -7.46875 4.722656 -7.332031 4.296875 -7.0625 C 3.878906 -6.789062 3.546875 -6.421875 3.296875 -5.953125 C 3.054688 -5.484375 2.9375 -4.976562 2.9375 -4.4375 Z M 2.9375 -4.4375 "/></g></g></g><g fill="#ffffff" fill-opacity="1"><g transform="translate(63.686823, 98.8407)"><g><path d="M 4.53125 -12.578125 L 4.53125 -8.71875 L 6.921875 -8.71875 L 6.921875 -7.15625 L 4.53125 -7.15625 L 4.53125 0 L 2.546875 0 L 2.546875 -7.15625 L 0.953125 -7.15625 L 0.953125 -8.71875 L 2.546875 -8.71875 L 2.546875 -12.578125 Z M 4.53125 -12.578125 "/></g></g></g><g fill="#ffffff" fill-opacity="1"><g transform="translate(71.282757, 98.8407)"><g><path d="M 5.8125 -1.484375 C 6.539062 -1.484375 7.25 -1.734375 7.9375 -2.234375 L 8.84375 -0.78125 C 8.375 -0.46875 7.867188 -0.222656 7.328125 -0.046875 C 6.785156 0.128906 6.265625 0.21875 5.765625 0.21875 C 4.796875 0.21875 3.945312 0.0195312 3.21875 -0.375 C 2.488281 -0.78125 1.925781 -1.335938 1.53125 -2.046875 C 1.144531 -2.753906 0.953125 -3.550781 0.953125 -4.4375 C 0.953125 -5.289062 1.164062 -6.070312 1.59375 -6.78125 C 2.019531 -7.5 2.601562 -8.0625 3.34375 -8.46875 C 4.09375 -8.882812 4.914062 -9.09375 5.8125 -9.09375 C 6.945312 -9.09375 7.894531 -8.757812 8.65625 -8.09375 C 9.425781 -7.425781 9.953125 -6.492188 10.234375 -5.296875 L 3.3125 -2.875 C 3.5625 -2.4375 3.898438 -2.09375 4.328125 -1.84375 C 4.765625 -1.601562 5.257812 -1.484375 5.8125 -1.484375 Z M 5.65625 -7.53125 C 4.851562 -7.53125 4.191406 -7.25 3.671875 -6.6875 C 3.148438 -6.125 2.890625 -5.40625 2.890625 -4.53125 C 2.890625 -4.320312 2.894531 -4.160156 2.90625 -4.046875 L 8 -5.9375 C 7.789062 -6.414062 7.488281 -6.800781 7.09375 -7.09375 C 6.707031 -7.382812 6.226562 -7.53125 5.65625 -7.53125 Z M 5.65625 -7.53125 "/></g></g></g><g fill="#ffffff" fill-opacity="1"><g transform="translate(82.254664, 98.8407)"><g><path d="M 10.59375 0 L 7.015625 -5.640625 C 6.898438 -5.617188 6.726562 -5.609375 6.5 -5.609375 L 4.25 -5.609375 L 4.25 0 L 2.203125 0 L 2.203125 -15.265625 L 6.265625 -15.265625 C 7.304688 -15.265625 8.234375 -15.082031 9.046875 -14.71875 C 9.867188 -14.351562 10.507812 -13.8125 10.96875 -13.09375 C 11.4375 -12.382812 11.671875 -11.53125 11.671875 -10.53125 C 11.671875 -9.59375 11.460938 -8.726562 11.046875 -7.9375 C 10.628906 -7.144531 9.992188 -6.546875 9.140625 -6.140625 L 12.984375 0 Z M 6.453125 -7.59375 C 7.554688 -7.59375 8.347656 -7.878906 8.828125 -8.453125 C 9.316406 -9.035156 9.5625 -9.703125 9.5625 -10.453125 C 9.5625 -10.898438 9.457031 -11.34375 9.25 -11.78125 C 9.050781 -12.21875 8.726562 -12.578125 8.28125 -12.859375 C 7.84375 -13.148438 7.285156 -13.296875 6.609375 -13.296875 L 4.25 -13.296875 L 4.25 -7.59375 Z M 6.453125 -7.59375 "/></g></g></g><g fill="#ffffff" fill-opacity="1"><g transform="translate(96.180549, 98.8407)"><g><path d="M 10.6875 -8.734375 L 10.6875 0 L 8.71875 0 L 8.71875 -1.4375 C 8.40625 -1.03125 7.953125 -0.648438 7.359375 -0.296875 C 6.773438 0.046875 6.109375 0.21875 5.359375 0.21875 C 4.523438 0.21875 3.773438 0.0390625 3.109375 -0.3125 C 2.441406 -0.675781 1.914062 -1.203125 1.53125 -1.890625 C 1.144531 -2.585938 0.953125 -3.414062 0.953125 -4.375 C 0.953125 -5.332031 1.148438 -6.164062 1.546875 -6.875 C 1.953125 -7.582031 2.492188 -8.128906 3.171875 -8.515625 C 3.859375 -8.898438 4.617188 -9.09375 5.453125 -9.09375 C 6.191406 -9.09375 6.835938 -8.929688 7.390625 -8.609375 C 7.941406 -8.285156 8.382812 -7.863281 8.71875 -7.34375 L 8.859375 -8.734375 Z M 5.890625 -1.421875 C 6.609375 -1.421875 7.222656 -1.617188 7.734375 -2.015625 C 8.242188 -2.421875 8.570312 -2.96875 8.71875 -3.65625 L 8.71875 -5.390625 C 8.550781 -6.003906 8.195312 -6.503906 7.65625 -6.890625 C 7.125 -7.273438 6.515625 -7.46875 5.828125 -7.46875 C 5.304688 -7.46875 4.820312 -7.34375 4.375 -7.09375 C 3.9375 -6.84375 3.585938 -6.488281 3.328125 -6.03125 C 3.066406 -5.570312 2.9375 -5.050781 2.9375 -4.46875 C 2.9375 -3.90625 3.066406 -3.390625 3.328125 -2.921875 C 3.597656 -2.460938 3.957031 -2.097656 4.40625 -1.828125 C 4.863281 -1.554688 5.359375 -1.421875 5.890625 -1.421875 Z M 5.890625 -1.421875 "/></g></g></g><g fill="#ffffff" fill-opacity="1"><g transform="translate(108.56615, 98.8407)"><g><path d="M 8.796875 -0.828125 C 8.410156 -0.503906 7.945312 -0.25 7.40625 -0.0625 C 6.863281 0.125 6.304688 0.21875 5.734375 0.21875 C 4.796875 0.21875 3.960938 0.03125 3.234375 -0.34375 C 2.515625 -0.726562 1.953125 -1.269531 1.546875 -1.96875 C 1.148438 -2.664062 0.953125 -3.472656 0.953125 -4.390625 C 0.953125 -5.285156 1.160156 -6.082031 1.578125 -6.78125 C 2.003906 -7.476562 2.566406 -8.015625 3.265625 -8.390625 C 3.972656 -8.773438 4.734375 -8.96875 5.546875 -8.96875 C 6.890625 -8.96875 7.992188 -8.601562 8.859375 -7.875 L 7.875 -6.59375 C 7.59375 -6.800781 7.269531 -6.976562 6.90625 -7.125 C 6.539062 -7.269531 6.144531 -7.34375 5.71875 -7.34375 C 5.195312 -7.34375 4.722656 -7.210938 4.296875 -6.953125 C 3.867188 -6.691406 3.53125 -6.335938 3.28125 -5.890625 C 3.03125 -5.441406 2.90625 -4.941406 2.90625 -4.390625 C 2.90625 -3.835938 3.035156 -3.335938 3.296875 -2.890625 C 3.554688 -2.441406 3.910156 -2.082031 4.359375 -1.8125 C 4.816406 -1.550781 5.332031 -1.421875 5.90625 -1.421875 C 6.625 -1.421875 7.253906 -1.628906 7.796875 -2.046875 Z M 8.796875 -0.828125 "/></g></g></g><g fill="#ffffff" fill-opacity="1"><g transform="translate(118.187668, 98.8407)"><g><path d="M 5.8125 -1.484375 C 6.539062 -1.484375 7.25 -1.734375 7.9375 -2.234375 L 8.84375 -0.78125 C 8.375 -0.46875 7.867188 -0.222656 7.328125 -0.046875 C 6.785156 0.128906 6.265625 0.21875 5.765625 0.21875 C 4.796875 0.21875 3.945312 0.0195312 3.21875 -0.375 C 2.488281 -0.78125 1.925781 -1.335938 1.53125 -2.046875 C 1.144531 -2.753906 0.953125 -3.550781 0.953125 -4.4375 C 0.953125 -5.289062 1.164062 -6.070312 1.59375 -6.78125 C 2.019531 -7.5 2.601562 -8.0625 3.34375 -8.46875 C 4.09375 -8.882812 4.914062 -9.09375 5.8125 -9.09375 C 6.945312 -9.09375 7.894531 -8.757812 8.65625 -8.09375 C 9.425781 -7.425781 9.953125 -6.492188 10.234375 -5.296875 L 3.3125 -2.875 C 3.5625 -2.4375 3.898438 -2.09375 4.328125 -1.84375 C 4.765625 -1.601562 5.257812 -1.484375 5.8125 -1.484375 Z M 5.65625 -7.53125 C 4.851562 -7.53125 4.191406 -7.25 3.671875 -6.6875 C 3.148438 -6.125 2.890625 -5.40625 2.890625 -4.53125 C 2.890625 -4.320312 2.894531 -4.160156 2.90625 -4.046875 L 8 -5.9375 C 7.789062 -6.414062 7.488281 -6.800781 7.09375 -7.09375 C 6.707031 -7.382812 6.226562 -7.53125 5.65625 -7.53125 Z M 5.65625 -7.53125 "/></g></g></g><g fill="#ffffff" fill-opacity="1"><g transform="translate(129.159574, 98.8407)"><g><path d="M 3.609375 -6.671875 C 3.835938 -7.148438 4.15625 -7.570312 4.5625 -7.9375 C 4.976562 -8.300781 5.421875 -8.582031 5.890625 -8.78125 C 6.359375 -8.976562 6.765625 -9.082031 7.109375 -9.09375 L 7.03125 -7.140625 C 6.394531 -7.160156 5.816406 -7.03125 5.296875 -6.75 C 4.785156 -6.46875 4.382812 -6.078125 4.09375 -5.578125 C 3.8125 -5.078125 3.671875 -4.546875 3.671875 -3.984375 L 3.671875 0 L 1.703125 0 L 1.703125 -8.734375 L 3.46875 -8.734375 Z M 3.609375 -6.671875 "/></g></g></g></svg>