<svg id="visual" viewBox="0 0 900 600" width="900" height="600" xmlns="http://www.w3.org/2000/svg" xmlns:xlink="http://www.w3.org/1999/xlink" version="1.1"><rect x="0" y="0" width="900" height="600" fill="#000"></rect><path d="M0 380L129 417L257 439L386 367L514 409L643 444L771 355L900 446L900 601L771 601L643 601L514 601L386 601L257 601L129 601L0 601Z" fill="#e77917"></path><path d="M0 461L129 477L257 417L386 460L514 447L643 455L771 420L900 424L900 601L771 601L643 601L514 601L386 601L257 601L129 601L0 601Z" fill="#be6314"></path><path d="M0 470L129 504L257 442L386 441L514 439L643 460L771 508L900 510L900 601L771 601L643 601L514 601L386 601L257 601L129 601L0 601Z" fill="#964e10"></path><path d="M0 524L129 493L257 528L386 532L514 484L643 505L771 480L900 482L900 601L771 601L643 601L514 601L386 601L257 601L129 601L0 601Z" fill="#703a0c"></path><path d="M0 547L129 525L257 573L386 565L514 553L643 531L771 565L900 524L900 601L771 601L643 601L514 601L386 601L257 601L129 601L0 601Z" fill="#4d2706"></path></svg>