<svg id="visual" viewBox="0 0 900 600" width="900" height="600" xmlns="http://www.w3.org/2000/svg" xmlns:xlink="http://www.w3.org/1999/xlink" version="1.1"><rect x="0" y="0" width="900" height="600" fill="#000"></rect><path d="M0 335L129 335L129 358L257 358L257 286L386 286L386 342L514 342L514 345L643 345L643 285L771 285L771 349L900 349L900 369L900 601L900 601L771 601L771 601L643 601L643 601L514 601L514 601L386 601L386 601L257 601L257 601L129 601L129 601L0 601Z" fill="#e77917"></path><path d="M0 414L129 414L129 436L257 436L257 443L386 443L386 427L514 427L514 403L643 403L643 427L771 427L771 378L900 378L900 432L900 601L900 601L771 601L771 601L643 601L643 601L514 601L514 601L386 601L386 601L257 601L257 601L129 601L129 601L0 601Z" fill="#984e0f"></path><path d="M0 491L129 491L129 472L257 472L257 513L386 513L386 542L514 542L514 533L643 533L643 472L771 472L771 472L900 472L900 507L900 601L900 601L771 601L771 601L643 601L643 601L514 601L514 601L386 601L386 601L257 601L257 601L129 601L129 601L0 601Z" fill="#502704"></path></svg>