<svg xmlns="http://www.w3.org/2000/svg" xmlns:xlink="http://www.w3.org/1999/xlink" width="500" zoomAndPan="magnify" viewBox="0 0 375 374.999991" height="500" preserveAspectRatio="xMidYMid meet" version="1.0"><defs><clipPath id="6a3b6a40d2"><path d="M 16.828125 16.828125 L 358.078125 16.828125 L 358.078125 358.078125 L 16.828125 358.078125 Z M 16.828125 16.828125 " clip-rule="nonzero"/></clipPath></defs><g clip-path="url(#6a3b6a40d2)"><path fill="#000000" d="M 187.453125 140.917969 C 213.046875 140.917969 233.988281 161.859375 233.988281 187.453125 C 233.988281 213.046875 213.046875 233.988281 187.453125 233.988281 C 161.859375 233.988281 140.917969 213.046875 140.917969 187.453125 C 140.917969 161.859375 161.859375 140.917969 187.453125 140.917969 M 187.453125 109.894531 C 144.640625 109.894531 109.894531 144.640625 109.894531 187.453125 C 109.894531 230.265625 144.640625 265.011719 187.453125 265.011719 C 230.265625 265.011719 265.011719 230.265625 265.011719 187.453125 C 265.011719 144.640625 230.265625 109.894531 187.453125 109.894531 Z M 32.339844 202.964844 L 63.363281 202.964844 C 71.894531 202.964844 78.875 195.984375 78.875 187.453125 C 78.875 178.921875 71.894531 171.941406 63.363281 171.941406 L 32.339844 171.941406 C 23.808594 171.941406 16.828125 178.921875 16.828125 187.453125 C 16.828125 195.984375 23.808594 202.964844 32.339844 202.964844 Z M 311.542969 202.964844 L 342.566406 202.964844 C 351.097656 202.964844 358.078125 195.984375 358.078125 187.453125 C 358.078125 178.921875 351.097656 171.941406 342.566406 171.941406 L 311.542969 171.941406 C 303.011719 171.941406 296.03125 178.921875 296.03125 187.453125 C 296.03125 195.984375 303.011719 202.964844 311.542969 202.964844 Z M 171.941406 32.339844 L 171.941406 63.363281 C 171.941406 71.894531 178.921875 78.875 187.453125 78.875 C 195.984375 78.875 202.964844 71.894531 202.964844 63.363281 L 202.964844 32.339844 C 202.964844 23.808594 195.984375 16.828125 187.453125 16.828125 C 178.921875 16.828125 171.941406 23.808594 171.941406 32.339844 Z M 171.941406 311.542969 L 171.941406 342.566406 C 171.941406 351.097656 178.921875 358.078125 187.453125 358.078125 C 195.984375 358.078125 202.964844 351.097656 202.964844 342.566406 L 202.964844 311.542969 C 202.964844 303.011719 195.984375 296.03125 187.453125 296.03125 C 178.921875 296.03125 171.941406 303.011719 171.941406 311.542969 Z M 94.230469 72.359375 C 88.179688 66.308594 78.253906 66.308594 72.359375 72.359375 C 66.308594 78.40625 66.308594 88.335938 72.359375 94.230469 L 88.800781 110.671875 C 94.851562 116.722656 104.777344 116.722656 110.671875 110.671875 C 116.566406 104.621094 116.722656 94.695312 110.671875 88.800781 Z M 286.105469 264.234375 C 280.054688 258.183594 270.128906 258.183594 264.234375 264.234375 C 258.183594 270.285156 258.183594 280.210938 264.234375 286.105469 L 280.675781 302.546875 C 286.726562 308.597656 296.652344 308.597656 302.546875 302.546875 C 308.597656 296.496094 308.597656 286.570312 302.546875 280.675781 Z M 302.546875 94.230469 C 308.597656 88.179688 308.597656 78.253906 302.546875 72.359375 C 296.496094 66.308594 286.570312 66.308594 280.675781 72.359375 L 264.234375 88.800781 C 258.183594 94.851562 258.183594 104.777344 264.234375 110.671875 C 270.285156 116.566406 280.210938 116.722656 286.105469 110.671875 Z M 110.671875 286.105469 C 116.722656 280.054688 116.722656 270.128906 110.671875 264.234375 C 104.621094 258.183594 94.695312 258.183594 88.800781 264.234375 L 72.359375 280.675781 C 66.308594 286.726562 66.308594 296.652344 72.359375 302.546875 C 78.40625 308.441406 88.335938 308.597656 94.230469 302.546875 Z M 110.671875 286.105469 " fill-opacity="1" fill-rule="nonzero"/></g></svg>