<svg xmlns="http://www.w3.org/2000/svg" xmlns:xlink="http://www.w3.org/1999/xlink" width="196" zoomAndPan="magnify" viewBox="0 0 147 147.000002" height="196" preserveAspectRatio="xMidYMid meet" version="1.0"><defs><g/><clipPath id="35df031bf3"><path d="M 6.648438 8.558594 L 133 8.558594 L 133 137.371094 L 6.648438 137.371094 Z M 6.648438 8.558594 " clip-rule="nonzero"/></clipPath><clipPath id="01a0ff28ec"><path d="M 5.175781 105.527344 L 141.496094 105.527344 L 141.496094 108.769531 L 5.175781 108.769531 Z M 5.175781 105.527344 " clip-rule="nonzero"/></clipPath><clipPath id="202bed8af9"><path d="M 5.175781 77.234375 L 141.496094 77.234375 L 141.496094 80.476562 L 5.175781 80.476562 Z M 5.175781 77.234375 " clip-rule="nonzero"/></clipPath></defs><path fill="#000000" d="M 43.574219 58.203125 C 43.574219 58.203125 39.707031 58.253906 39.550781 58.855469 C 39.398438 59.449219 39.203125 59.957031 41.21875 59.683594 C 43.238281 59.410156 44.351562 58.539062 44.210938 58.402344 C 44.070312 58.253906 43.574219 58.203125 43.574219 58.203125 Z M 28.472656 60.292969 C 28.472656 60.292969 27.101562 60.316406 27.074219 60.601562 C 27.046875 60.886719 27.152344 61.210938 27.660156 61.148438 C 28.164062 61.082031 28.914062 60.667969 28.824219 60.511719 C 28.730469 60.355469 28.472656 60.292969 28.472656 60.292969 Z M 15.234375 66.503906 C 23.445312 63.824219 26.652344 75.464844 20.875 79.460938 C 22.601562 79.546875 23.875 79.789062 24.769531 79.128906 C 26.78125 77.65625 27.960938 72.125 25.433594 68.429688 C 24.625 66.3125 21.585938 63.71875 18.238281 64.269531 C 14.769531 64.84375 13.058594 67.898438 13.058594 67.898438 C 13.058594 67.898438 13.058594 67.898438 13.375 67.953125 C 13.582031 67.984375 13.847656 67.203125 15.234375 66.503906 Z M 69.789062 65.246094 C 77.339844 64.902344 79.175781 73.136719 77.292969 79.203125 L 83.402344 79.128906 C 86.355469 68.34375 80.730469 56.75 68.410156 58.488281 C 63.03125 59.25 59.902344 63.402344 58.863281 64.816406 C 58.242188 65.660156 58.660156 65.734375 59.347656 65.066406 C 60.386719 64.058594 62.757812 61.792969 66.652344 60.644531 C 71.769531 59.132812 75.515625 60.71875 78.050781 63.957031 C 75.820312 62.46875 72.308594 61.714844 69.121094 62.449219 C 62.855469 63.882812 58.605469 69.742188 59.164062 78.929688 C 59.210938 79.679688 62.738281 79.097656 62.738281 79.097656 C 62.738281 79.097656 62.144531 77.71875 62.125 75.382812 C 62.070312 69.65625 64.917969 65.644531 69.789062 65.246094 Z M 111.476562 77.886719 C 111.476562 77.886719 121.261719 77.359375 124.109375 76.324219 C 124.996094 76 125.722656 75.480469 126.300781 74.917969 C 120.015625 76.757812 95.808594 75.863281 95.808594 75.863281 C 95.808594 75.863281 94.050781 76.191406 93.972656 75.269531 C 93.898438 74.34375 96.210938 67.503906 98.09375 65.3125 C 99.398438 63.792969 105.539062 63.6875 107.316406 64.496094 C 108.355469 64.972656 109.492188 66.722656 110.890625 66.882812 C 112.285156 67.035156 122.488281 67.289062 123.960938 66.65625 C 125.4375 66.027344 125.644531 65.214844 126.496094 65.050781 C 127.351562 64.886719 130.277344 64.601562 130.507812 64.808594 C 130.65625 64.941406 130.816406 67.859375 129.96875 70.585938 C 129.765625 71.316406 128.480469 75.511719 124.992188 77.304688 C 121.160156 79.277344 116.65625 79.433594 116.65625 79.433594 Z M 10.539062 68.496094 C 10.539062 68.496094 12.671875 62.238281 14.097656 61.148438 C 15.523438 60.058594 16.851562 60.226562 18.253906 58.800781 C 19.648438 57.375 24.847656 50.011719 25.859375 49.546875 C 26.042969 49.464844 26.886719 49.132812 28.167969 48.660156 C 27.628906 50.304688 25.921875 55.535156 26.183594 55.664062 C 26.449219 55.796875 28.566406 50.070312 29.339844 48.230469 C 32.21875 47.175781 36.464844 45.671875 40.453125 44.371094 C 39.515625 46.457031 37.738281 53.835938 37.738281 53.835938 C 37.738281 53.835938 37.738281 53.835938 37.804688 53.953125 C 37.84375 54.027344 40.195312 46.890625 42.003906 43.871094 C 46.300781 42.507812 50.035156 41.496094 51.039062 41.714844 C 52.917969 42.128906 55.902344 45.488281 58.210938 48.144531 C 57.753906 47.742188 57.34375 47.429688 57.058594 47.304688 C 55.945312 46.808594 51.753906 47.199219 50.820312 47.792969 C 49.890625 48.394531 50.535156 50.414062 50.535156 50.414062 C 50.535156 50.414062 50.820312 50.882812 51.535156 51.035156 C 52.242188 51.191406 54.988281 50.777344 56.128906 50.621094 C 56.816406 50.527344 57.804688 50.882812 58.476562 51.175781 C 48.9375 52.867188 23.117188 58.21875 23.117188 58.21875 C 23.117188 58.21875 21.304688 58.710938 21.550781 58.867188 C 21.6875 58.953125 44.644531 55.292969 65.265625 53.546875 C 71.355469 53.03125 77.339844 52.851562 82.375 52.816406 C 82.402344 52.925781 82.433594 53.042969 82.472656 53.164062 C 82.808594 54.148438 87.597656 59.152344 90.339844 59.929688 C 93.082031 60.703125 98.132812 60.035156 98.027344 59.800781 C 97.921875 59.5625 94.429688 59.699219 92.179688 58.890625 C 89.925781 58.085938 86.042969 54.277344 85.835938 53.574219 C 85.75 53.285156 85.84375 53.023438 85.980469 52.816406 C 87.996094 52.824219 89.78125 52.855469 91.257812 52.890625 C 92.394531 53.109375 93.589844 53.421875 94.714844 53.863281 C 98.753906 55.445312 102.324219 58.867188 102.21875 59.253906 C 102.117188 59.644531 101.445312 59.699219 101.445312 59.699219 C 101.445312 59.699219 103.023438 60.058594 103.152344 58.839844 C 103.257812 57.832031 101.359375 54.703125 100.601562 53.617188 C 101.355469 53.796875 102.691406 54.175781 103.207031 54.664062 C 103.929688 55.367188 107.007812 61.355469 108.613281 62.160156 C 110.214844 62.960938 127.015625 63.25 127.585938 62.339844 C 128.152344 61.433594 124.738281 53.96875 124.738281 53.96875 C 124.738281 53.96875 117.050781 52.097656 107.214844 51.480469 C 106.609375 51.441406 105.988281 51.402344 105.34375 51.363281 C 105.277344 51.363281 105.21875 51.351562 105.144531 51.351562 C 101.804688 51.125 87.265625 50.53125 78.621094 50.769531 C 74.597656 50.882812 66.589844 51.667969 63.898438 48.726562 C 63.148438 47.902344 58.734375 43.929688 55.558594 41.347656 L 68.988281 48.652344 L 93.835938 49.117188 C 93.835938 49.117188 89.847656 45.644531 85.5 43.828125 C 79.785156 41.441406 59.058594 38.964844 52.050781 39.046875 C 51.722656 39.019531 51.339844 39.039062 50.941406 39.089844 L 50.9375 39.089844 C 49.671875 39.25 48.296875 39.695312 48.296875 39.695312 C 48.296875 39.695312 25.652344 47.941406 24.4375 49.082031 C 23.222656 50.21875 17.785156 58.152344 16.929688 58.410156 C 16.078125 58.671875 14.109375 58.855469 13.257812 60.203125 C 12.746094 61.003906 11.046875 64.59375 10.425781 66.714844 C 10.003906 68.167969 10.539062 68.496094 10.539062 68.496094 " fill-opacity="1" fill-rule="evenodd"/><path stroke-linecap="round" transform="matrix(0.0294243, 0, 0, -0.0294735, 5.176629, 137.371188)" fill="none" stroke-linejoin="round" d="M 1304.9633 2686.078997 C 1304.9633 2686.078997 1173.534795 2684.356049 1168.224553 2663.945743 C 1163.047066 2643.800506 1156.409263 2626.571027 1224.911392 2635.848439 C 1293.546278 2645.125851 1331.381757 2674.681034 1326.602538 2679.31974 C 1321.82332 2684.356049 1304.9633 2686.078997 1304.9633 2686.078997 Z M 791.728352 2615.173064 C 791.728352 2615.173064 745.130973 2614.377858 744.20168 2604.702842 C 743.272388 2595.027827 746.856801 2584.027467 764.11509 2586.148019 C 781.240622 2588.401104 806.729787 2602.449757 803.676397 2607.751135 C 800.490252 2613.052513 791.728352 2615.173064 791.728352 2615.173064 Z M 341.818046 2404.443282 C 620.871296 2495.361918 729.864025 2100.409244 533.517805 1964.826497 C 592.195985 1961.910739 635.474463 1953.693603 665.875602 1976.091926 C 734.244975 2026.057415 774.337307 2213.726202 688.444133 2339.103796 C 660.963627 2410.93747 557.679409 2498.940348 443.907461 2480.25299 C 326.020075 2460.770425 267.872918 2357.128482 267.872918 2357.128482 C 267.872918 2357.128482 267.872918 2357.128482 278.626159 2355.272999 C 285.662231 2354.212724 294.689643 2380.719615 341.818046 2404.443282 Z M 2195.889254 2447.119376 C 2452.506728 2458.782408 2514.902078 2179.399779 2450.913655 1973.573771 L 2658.544141 1976.091926 C 2758.907726 2342.019554 2567.738992 2735.381814 2149.026363 2676.271448 C 1966.221261 2650.559764 1859.883652 2509.675639 1824.570539 2461.698166 C 1803.462325 2433.070724 1817.667224 2430.552569 1841.032291 2453.215961 C 1876.345405 2487.40985 1956.928336 2564.279834 2089.286133 2603.244963 C 2263.196579 2654.535797 2390.509645 2600.726809 2476.668332 2490.855746 C 2400.864618 2541.351373 2281.516916 2566.930523 2173.187966 2542.014045 C 1960.247238 2493.373901 1815.808639 2294.572219 1834.792756 1982.851183 C 1836.385829 1957.404568 1956.264556 1977.152201 1956.264556 1977.152201 C 1956.264556 1977.152201 1936.085634 2023.936864 1935.421854 2103.192467 C 1933.563269 2297.487977 2030.34244 2433.600862 2195.889254 2447.119376 Z M 3612.661982 2018.237882 C 3612.661982 2018.237882 3945.215925 2036.130034 4041.995097 2071.251664 C 4072.130724 2082.252024 4096.823352 2099.879106 4116.471249 2118.964067 C 3902.86674 2056.54034 3080.177404 2086.89073 3080.177404 2086.89073 C 3080.177404 2086.89073 3020.437175 2075.757835 3017.782053 2107.035967 C 3015.259688 2138.446632 3093.851279 2370.514462 3157.839702 2444.866291 C 3202.180228 2496.422193 3410.872763 2500.000623 3471.276772 2472.565991 C 3506.45713 2456.396788 3545.221901 2397.021353 3592.748572 2391.58744 C 3640.142487 2386.418596 3986.90133 2377.803857 4036.950366 2399.274438 C 4087.132159 2420.612485 4094.16823 2448.179652 4123.109053 2453.746099 C 4152.182631 2459.312546 4251.616924 2468.987561 4259.449532 2461.963235 C 4264.494262 2457.457064 4269.937261 2358.453826 4241.129195 2265.944777 C 4234.225879 2241.160834 4190.549134 2098.81883 4071.997967 2037.985516 C 3941.764267 1971.055617 3788.696524 1965.754238 3788.696524 1965.754238 Z M 182.245256 2336.85071 C 182.245256 2336.85071 254.730068 2549.170906 303.186031 2586.148019 C 351.641995 2623.125132 396.779057 2617.42615 444.438485 2665.801226 C 491.8324 2714.176302 668.530723 2964.003748 702.914544 2979.775348 C 709.154079 2982.558571 737.829389 2993.824 781.373378 3009.860669 C 763.053041 2954.063664 705.038641 2776.60003 713.933297 2772.226393 C 722.96071 2767.720221 794.914497 2962.015731 821.200198 3024.439459 C 919.041418 3060.223762 1063.347261 3111.249527 1198.891204 3155.3835 C 1167.029748 3084.610101 1106.625738 2834.252517 1106.625738 2834.252517 C 1106.625738 2834.252517 1106.625738 2834.252517 1108.882591 2830.276484 C 1110.210152 2827.758329 1190.129303 3069.898777 1251.595362 3172.34791 C 1397.627033 3218.602435 1524.541832 3252.928858 1558.66014 3245.506929 C 1622.515808 3231.458277 1723.941442 3117.478646 1802.400276 3027.355217 C 1786.867817 3041.006266 1772.92843 3051.609022 1763.237237 3055.850125 C 1725.401758 3072.682 1582.9545 3059.428555 1551.225801 3039.283318 C 1519.629857 3018.873012 1541.534608 2950.352699 1541.534608 2950.352699 C 1541.534608 2950.352699 1551.225801 2934.448565 1575.520161 2929.279721 C 1599.549009 2923.978343 1692.876522 2938.026995 1731.641293 2943.328373 C 1755.006361 2946.5092 1788.593645 2934.448565 1811.427689 2924.508481 C 1487.237377 2867.121062 609.719786 2685.548859 609.719786 2685.548859 C 609.719786 2685.548859 548.120972 2668.849518 556.484604 2663.54814 C 561.131066 2660.632382 1341.338462 2784.817166 2042.15773 2844.060067 C 2249.124436 2861.554615 2452.506728 2867.6512 2623.629296 2868.84401 C 2624.558588 2865.133045 2625.620637 2861.157011 2626.948197 2857.048443 C 2638.365219 2823.649761 2801.124155 2653.873125 2894.318913 2627.498768 C 2987.513671 2601.256947 3159.167263 2623.920338 3155.582849 2631.872405 C 3151.998435 2639.957007 3033.314513 2635.318301 2956.847019 2662.752933 C 2880.24677 2690.055031 2748.287241 2819.276124 2741.25117 2843.132326 C 2738.330536 2852.939875 2741.516682 2861.819684 2746.163144 2868.84401 C 2814.665274 2868.578941 2875.334795 2867.518665 2925.516588 2866.325855 C 2964.148603 2858.903926 3004.771959 2848.301169 3043.005706 2833.324776 C 3180.275477 2779.648322 3301.614521 2663.54814 3298.030107 2650.427229 C 3294.578449 2637.173784 3271.744406 2635.318301 3271.744406 2635.318301 C 3271.744406 2635.318301 3325.377857 2623.125132 3329.758807 2664.475881 C 3333.343221 2698.66977 3268.823773 2804.829868 3243.069096 2841.674447 C 3268.691017 2835.577862 3314.093591 2822.72202 3331.617392 2806.155213 C 3356.177264 2782.299011 3460.789043 2579.123693 3515.351786 2551.821595 C 3569.781773 2524.652032 4140.765609 2514.844482 4160.147995 2545.72501 C 4179.397624 2576.473004 4063.368823 2829.746346 4063.368823 2829.746346 C 4063.368823 2829.746346 3802.104887 2893.230349 3467.825115 2914.170793 C 3447.247924 2915.496138 3426.13971 2916.821482 3404.234959 2918.146827 C 3401.978106 2918.146827 3399.986765 2918.54443 3397.4644 2918.54443 C 3283.957964 2926.231428 2789.839889 2946.376665 2496.050717 2938.292064 C 2359.31197 2934.448565 2087.162036 2907.809139 1995.693107 3007.607583 C 1970.203943 3035.572353 1820.189589 3170.359893 1712.258908 3257.965167 L 2168.67426 3010.125738 L 3013.135591 2994.354138 C 3013.135591 2994.354138 2877.591649 3112.177268 2729.834148 3173.805789 C 2535.612024 3254.784341 1831.208342 3338.811185 1593.043961 3336.027961 C 1581.892452 3336.955702 1568.882357 3336.29303 1555.341239 3334.570082 L 1555.208483 3334.570082 C 1512.195518 3329.136169 1465.465383 3314.027242 1465.465383 3314.027242 C 1465.465383 3314.027242 695.878472 3034.247009 654.591336 2995.546948 C 613.3042 2956.979422 428.507757 2687.801945 399.434179 2679.054671 C 370.493357 2670.174863 303.5843 2663.945743 274.643477 2618.221357 C 257.252433 2591.051794 199.503545 2469.25263 178.39533 2397.286421 C 164.057675 2347.983604 182.245256 2336.85071 182.245256 2336.85071 Z M 182.245256 2336.85071 " stroke="#000000" stroke-width="2.268" stroke-opacity="1" stroke-miterlimit="10"/><g clip-path="url(#35df031bf3)"><path fill="#ff9d00" d="M 12.070312 55.582031 C 9.082031 43.1875 6.824219 33.25 6.90625 31.894531 C 7.546875 21.613281 20.308594 14.863281 37.632812 11.4375 C 47.332031 9.519531 58.625 8.558594 69.933594 8.558594 C 81.242188 8.558594 92.53125 9.515625 102.230469 11.4375 C 119.53125 14.855469 132.273438 21.605469 132.914062 31.894531 C 132.988281 33.097656 131.214844 41.0625 128.726562 51.5 C 126.601562 50.847656 124.011719 50.144531 121.304688 49.457031 C 123.578125 40.082031 125.167969 33.15625 125.121094 32.351562 C 124.746094 26.339844 114.59375 21.863281 100.734375 19.121094 C 91.445312 17.285156 80.683594 16.367188 69.933594 16.367188 C 59.1875 16.367188 48.421875 17.289062 39.128906 19.121094 C 25.246094 21.867188 15.078125 26.347656 14.699219 32.351562 C 14.652344 33.152344 16.21875 39.976562 18.464844 49.25 L 17.609375 51.054688 C 16.992188 52.375 14.195312 54.261719 12.363281 55.355469 C 12.265625 55.414062 12.167969 55.488281 12.070312 55.582031 Z M 67.875 136.800781 L 27.675781 113.28125 C 26.625 112.667969 25.96875 111.644531 25.785156 110.53125 C 25.640625 109.957031 25.304688 108.636719 24.820312 106.730469 L 32.835938 106.636719 L 33.011719 107.328125 L 69.910156 128.914062 L 106.808594 107.328125 L 107.210938 105.746094 L 115.28125 105.648438 C 114.453125 108.886719 113.957031 110.828125 113.949219 110.859375 C 113.679688 111.914062 113.007812 112.757812 112.136719 113.265625 L 112.144531 113.28125 L 71.878906 136.835938 C 70.597656 137.585938 69.0625 137.523438 67.875 136.800781 " fill-opacity="1" fill-rule="nonzero"/></g><path fill="#000000" d="M 125.023438 55.339844 C 125.101562 55.367188 126.613281 55.691406 127.480469 56.792969 C 128.347656 57.894531 128.796875 59.304688 128.953125 59.253906 C 129.109375 59.203125 128.539062 56.132812 127.3125 55.09375 C 126.082031 54.058594 124.230469 53.847656 124.230469 53.847656 C 124.230469 53.847656 124.179688 54.941406 124.230469 55.039062 C 124.28125 55.148438 125.023438 55.339844 125.023438 55.339844 " fill-opacity="1" fill-rule="evenodd"/><path fill="#ffffff" d="M 115.300781 60.976562 C 115.300781 60.976562 112.1875 54.710938 112.382812 54.160156 C 112.570312 53.601562 113.105469 54.035156 113.289062 54.242188 C 113.476562 54.453125 115.710938 61.027344 115.5625 61.089844 C 115.410156 61.152344 115.300781 60.976562 115.300781 60.976562 Z M 119.804688 61.425781 C 119.804688 61.425781 116.695312 55.160156 116.886719 54.601562 C 117.078125 54.050781 117.617188 54.476562 117.800781 54.6875 C 117.984375 54.894531 120.21875 61.46875 120.070312 61.53125 C 119.921875 61.59375 119.804688 61.425781 119.804688 61.425781 Z M 124.164062 61.234375 C 124.164062 61.234375 121.535156 55.425781 121.769531 54.910156 C 122 54.398438 122.507812 54.792969 122.675781 54.992188 C 122.84375 55.1875 124.574219 61.277344 124.417969 61.335938 C 124.261719 61.394531 124.164062 61.234375 124.164062 61.234375 Z M 111.117188 60.855469 C 111.117188 60.855469 107.589844 54.78125 107.746094 54.21875 C 107.902344 53.65625 108.464844 54.054688 108.664062 54.253906 C 108.863281 54.453125 111.527344 60.875 111.382812 60.945312 C 111.238281 61.019531 111.117188 60.855469 111.117188 60.855469 " fill-opacity="1" fill-rule="evenodd"/><g clip-path="url(#01a0ff28ec)"><path fill="#ff9d00" d="M 5.175781 105.546875 L 141.496094 105.546875 C 141.496094 105.546875 133.597656 107.105469 119.023438 107.828125 C 106.570312 108.449219 81.34375 108.539062 74.277344 108.554688 C 74.277344 108.554688 73.941406 108.554688 73.335938 108.554688 C 72.726562 108.554688 72.394531 108.554688 72.394531 108.554688 C 65.328125 108.539062 40.101562 108.449219 27.648438 107.828125 C 13.074219 107.105469 5.175781 105.546875 5.175781 105.546875 " fill-opacity="1" fill-rule="evenodd"/></g><g clip-path="url(#202bed8af9)"><path fill="#ff9d00" d="M 5.175781 80.445312 L 141.496094 80.445312 C 141.496094 80.445312 133.597656 78.890625 119.023438 78.164062 C 106.570312 77.546875 81.34375 77.457031 74.277344 77.441406 C 74.277344 77.441406 73.941406 77.441406 73.335938 77.441406 C 72.726562 77.441406 72.394531 77.441406 72.394531 77.441406 C 65.328125 77.457031 40.101562 77.546875 27.648438 78.164062 C 13.074219 78.890625 5.175781 80.445312 5.175781 80.445312 " fill-opacity="1" fill-rule="evenodd"/></g><g fill="#000000" fill-opacity="1"><g transform="translate(11.039322, 98.942639)"><g><path d="M 10.40625 0 L 6.890625 -5.53125 C 6.773438 -5.519531 6.609375 -5.515625 6.390625 -5.515625 L 4.171875 -5.515625 L 4.171875 0 L 2.15625 0 L 2.15625 -14.984375 L 6.15625 -14.984375 C 7.175781 -14.984375 8.085938 -14.800781 8.890625 -14.4375 C 9.691406 -14.082031 10.320312 -13.554688 10.78125 -12.859375 C 11.238281 -12.160156 11.46875 -11.320312 11.46875 -10.34375 C 11.46875 -9.414062 11.265625 -8.566406 10.859375 -7.796875 C 10.453125 -7.023438 9.828125 -6.4375 8.984375 -6.03125 L 12.75 0 Z M 6.34375 -7.46875 C 7.425781 -7.46875 8.203125 -7.75 8.671875 -8.3125 C 9.148438 -8.882812 9.390625 -9.535156 9.390625 -10.265625 C 9.390625 -10.703125 9.289062 -11.132812 9.09375 -11.5625 C 8.894531 -12 8.578125 -12.359375 8.140625 -12.640625 C 7.703125 -12.921875 7.148438 -13.0625 6.484375 -13.0625 L 4.171875 -13.0625 L 4.171875 -7.46875 Z M 6.34375 -7.46875 "/></g></g></g><g fill="#000000" fill-opacity="1"><g transform="translate(24.711923, 98.942639)"><g><path d="M 5.703125 -1.453125 C 6.421875 -1.453125 7.117188 -1.703125 7.796875 -2.203125 L 8.6875 -0.765625 C 8.226562 -0.460938 7.734375 -0.222656 7.203125 -0.046875 C 6.671875 0.117188 6.15625 0.203125 5.65625 0.203125 C 4.707031 0.203125 3.875 0.0078125 3.15625 -0.375 C 2.445312 -0.769531 1.898438 -1.3125 1.515625 -2 C 1.128906 -2.695312 0.9375 -3.484375 0.9375 -4.359375 C 0.9375 -5.203125 1.144531 -5.972656 1.5625 -6.671875 C 1.988281 -7.367188 2.566406 -7.921875 3.296875 -8.328125 C 4.023438 -8.734375 4.828125 -8.9375 5.703125 -8.9375 C 6.816406 -8.9375 7.75 -8.609375 8.5 -7.953125 C 9.257812 -7.296875 9.78125 -6.378906 10.0625 -5.203125 L 3.25 -2.8125 C 3.5 -2.382812 3.832031 -2.050781 4.25 -1.8125 C 4.675781 -1.570312 5.160156 -1.453125 5.703125 -1.453125 Z M 5.5625 -7.40625 C 4.769531 -7.40625 4.117188 -7.128906 3.609375 -6.578125 C 3.097656 -6.023438 2.84375 -5.316406 2.84375 -4.453125 C 2.84375 -4.242188 2.847656 -4.085938 2.859375 -3.984375 L 7.859375 -5.828125 C 7.648438 -6.296875 7.351562 -6.675781 6.96875 -6.96875 C 6.59375 -7.257812 6.125 -7.40625 5.5625 -7.40625 Z M 5.5625 -7.40625 "/></g></g></g><g fill="#000000" fill-opacity="1"><g transform="translate(35.484274, 98.942639)"><g><path d="M 12.6875 -8.9375 C 13.519531 -8.9375 14.179688 -8.703125 14.671875 -8.234375 C 15.160156 -7.765625 15.421875 -7.140625 15.453125 -6.359375 L 15.453125 0 L 13.515625 0 L 13.515625 -5.65625 C 13.472656 -6.664062 13.019531 -7.195312 12.15625 -7.25 C 11.65625 -7.25 11.207031 -7.097656 10.8125 -6.796875 C 10.414062 -6.503906 10.109375 -6.113281 9.890625 -5.625 C 9.671875 -5.144531 9.550781 -4.628906 9.53125 -4.078125 L 9.53125 0 L 7.59375 0 L 7.59375 -5.65625 C 7.550781 -6.664062 7.078125 -7.195312 6.171875 -7.25 C 5.691406 -7.25 5.253906 -7.097656 4.859375 -6.796875 C 4.460938 -6.503906 4.15625 -6.113281 3.9375 -5.625 C 3.71875 -5.132812 3.609375 -4.613281 3.609375 -4.0625 L 3.609375 0 L 1.671875 0 L 1.671875 -8.578125 L 3.421875 -8.578125 L 3.5625 -6.96875 C 3.894531 -7.59375 4.347656 -8.078125 4.921875 -8.421875 C 5.492188 -8.765625 6.148438 -8.9375 6.890625 -8.9375 C 7.578125 -8.9375 8.15625 -8.773438 8.625 -8.453125 C 9.09375 -8.128906 9.394531 -7.679688 9.53125 -7.109375 C 9.894531 -7.679688 10.351562 -8.128906 10.90625 -8.453125 C 11.457031 -8.773438 12.050781 -8.9375 12.6875 -8.9375 Z M 12.6875 -8.9375 "/></g></g></g><g fill="#000000" fill-opacity="1"><g transform="translate(52.575025, 98.942639)"><g><path d="M 0.9375 -4.375 C 0.9375 -5.21875 1.140625 -5.988281 1.546875 -6.6875 C 1.953125 -7.382812 2.515625 -7.929688 3.234375 -8.328125 C 3.960938 -8.734375 4.785156 -8.9375 5.703125 -8.9375 C 6.617188 -8.9375 7.429688 -8.734375 8.140625 -8.328125 C 8.847656 -7.929688 9.398438 -7.382812 9.796875 -6.6875 C 10.191406 -6 10.390625 -5.226562 10.390625 -4.375 C 10.390625 -3.519531 10.191406 -2.742188 9.796875 -2.046875 C 9.398438 -1.347656 8.84375 -0.796875 8.125 -0.390625 C 7.40625 0.00390625 6.582031 0.203125 5.65625 0.203125 C 4.757812 0.203125 3.953125 0.015625 3.234375 -0.359375 C 2.515625 -0.742188 1.953125 -1.28125 1.546875 -1.96875 C 1.140625 -2.65625 0.9375 -3.457031 0.9375 -4.375 Z M 2.875 -4.359375 C 2.875 -3.816406 2.992188 -3.316406 3.234375 -2.859375 C 3.484375 -2.398438 3.816406 -2.039062 4.234375 -1.78125 C 4.660156 -1.519531 5.128906 -1.390625 5.640625 -1.390625 C 6.441406 -1.390625 7.101562 -1.671875 7.625 -2.234375 C 8.15625 -2.804688 8.421875 -3.515625 8.421875 -4.359375 C 8.421875 -5.203125 8.15625 -5.910156 7.625 -6.484375 C 7.101562 -7.054688 6.441406 -7.34375 5.640625 -7.34375 C 5.117188 -7.34375 4.648438 -7.207031 4.234375 -6.9375 C 3.816406 -6.664062 3.484375 -6.300781 3.234375 -5.84375 C 2.992188 -5.382812 2.875 -4.890625 2.875 -4.359375 Z M 2.875 -4.359375 "/></g></g></g><g fill="#000000" fill-opacity="1"><g transform="translate(63.865274, 98.942639)"><g><path d="M 4.453125 -12.359375 L 4.453125 -8.5625 L 6.796875 -8.5625 L 6.796875 -7.03125 L 4.453125 -7.03125 L 4.453125 0 L 2.515625 0 L 2.515625 -7.03125 L 0.9375 -7.03125 L 0.9375 -8.5625 L 2.515625 -8.5625 L 2.515625 -12.359375 Z M 4.453125 -12.359375 "/></g></g></g><g fill="#000000" fill-opacity="1"><g transform="translate(71.323046, 98.942639)"><g><path d="M 5.703125 -1.453125 C 6.421875 -1.453125 7.117188 -1.703125 7.796875 -2.203125 L 8.6875 -0.765625 C 8.226562 -0.460938 7.734375 -0.222656 7.203125 -0.046875 C 6.671875 0.117188 6.15625 0.203125 5.65625 0.203125 C 4.707031 0.203125 3.875 0.0078125 3.15625 -0.375 C 2.445312 -0.769531 1.898438 -1.3125 1.515625 -2 C 1.128906 -2.695312 0.9375 -3.484375 0.9375 -4.359375 C 0.9375 -5.203125 1.144531 -5.972656 1.5625 -6.671875 C 1.988281 -7.367188 2.566406 -7.921875 3.296875 -8.328125 C 4.023438 -8.734375 4.828125 -8.9375 5.703125 -8.9375 C 6.816406 -8.9375 7.75 -8.609375 8.5 -7.953125 C 9.257812 -7.296875 9.78125 -6.378906 10.0625 -5.203125 L 3.25 -2.8125 C 3.5 -2.382812 3.832031 -2.050781 4.25 -1.8125 C 4.675781 -1.570312 5.160156 -1.453125 5.703125 -1.453125 Z M 5.5625 -7.40625 C 4.769531 -7.40625 4.117188 -7.128906 3.609375 -6.578125 C 3.097656 -6.023438 2.84375 -5.316406 2.84375 -4.453125 C 2.84375 -4.242188 2.847656 -4.085938 2.859375 -3.984375 L 7.859375 -5.828125 C 7.648438 -6.296875 7.351562 -6.675781 6.96875 -6.96875 C 6.59375 -7.257812 6.125 -7.40625 5.5625 -7.40625 Z M 5.5625 -7.40625 "/></g></g></g><g fill="#000000" fill-opacity="1"><g transform="translate(82.095396, 98.942639)"><g><path d="M 10.40625 0 L 6.890625 -5.53125 C 6.773438 -5.519531 6.609375 -5.515625 6.390625 -5.515625 L 4.171875 -5.515625 L 4.171875 0 L 2.15625 0 L 2.15625 -14.984375 L 6.15625 -14.984375 C 7.175781 -14.984375 8.085938 -14.800781 8.890625 -14.4375 C 9.691406 -14.082031 10.320312 -13.554688 10.78125 -12.859375 C 11.238281 -12.160156 11.46875 -11.320312 11.46875 -10.34375 C 11.46875 -9.414062 11.265625 -8.566406 10.859375 -7.796875 C 10.453125 -7.023438 9.828125 -6.4375 8.984375 -6.03125 L 12.75 0 Z M 6.34375 -7.46875 C 7.425781 -7.46875 8.203125 -7.75 8.671875 -8.3125 C 9.148438 -8.882812 9.390625 -9.535156 9.390625 -10.265625 C 9.390625 -10.703125 9.289062 -11.132812 9.09375 -11.5625 C 8.894531 -12 8.578125 -12.359375 8.140625 -12.640625 C 7.703125 -12.921875 7.148438 -13.0625 6.484375 -13.0625 L 4.171875 -13.0625 L 4.171875 -7.46875 Z M 6.34375 -7.46875 "/></g></g></g><g fill="#000000" fill-opacity="1"><g transform="translate(95.767997, 98.942639)"><g><path d="M 10.484375 -8.578125 L 10.484375 0 L 8.5625 0 L 8.5625 -1.40625 C 8.257812 -1.007812 7.816406 -0.640625 7.234375 -0.296875 C 6.648438 0.0351562 5.992188 0.203125 5.265625 0.203125 C 4.453125 0.203125 3.71875 0.03125 3.0625 -0.3125 C 2.40625 -0.664062 1.882812 -1.179688 1.5 -1.859375 C 1.125 -2.535156 0.9375 -3.347656 0.9375 -4.296875 C 0.9375 -5.234375 1.128906 -6.050781 1.515625 -6.75 C 1.910156 -7.445312 2.441406 -7.984375 3.109375 -8.359375 C 3.785156 -8.742188 4.53125 -8.9375 5.34375 -8.9375 C 6.082031 -8.9375 6.71875 -8.773438 7.25 -8.453125 C 7.789062 -8.140625 8.226562 -7.726562 8.5625 -7.21875 L 8.703125 -8.578125 Z M 5.78125 -1.390625 C 6.488281 -1.390625 7.09375 -1.585938 7.59375 -1.984375 C 8.101562 -2.378906 8.425781 -2.914062 8.5625 -3.59375 L 8.5625 -5.28125 C 8.394531 -5.894531 8.046875 -6.390625 7.515625 -6.765625 C 6.992188 -7.148438 6.394531 -7.34375 5.71875 -7.34375 C 5.207031 -7.34375 4.734375 -7.21875 4.296875 -6.96875 C 3.867188 -6.71875 3.523438 -6.367188 3.265625 -5.921875 C 3.003906 -5.472656 2.875 -4.960938 2.875 -4.390625 C 2.875 -3.835938 3.003906 -3.332031 3.265625 -2.875 C 3.535156 -2.425781 3.890625 -2.066406 4.328125 -1.796875 C 4.773438 -1.523438 5.257812 -1.390625 5.78125 -1.390625 Z M 5.78125 -1.390625 "/></g></g></g><g fill="#000000" fill-opacity="1"><g transform="translate(107.928314, 98.942639)"><g><path d="M 8.640625 -0.8125 C 8.253906 -0.488281 7.796875 -0.238281 7.265625 -0.0625 C 6.734375 0.113281 6.191406 0.203125 5.640625 0.203125 C 4.710938 0.203125 3.890625 0.0195312 3.171875 -0.34375 C 2.460938 -0.71875 1.910156 -1.25 1.515625 -1.9375 C 1.128906 -2.625 0.9375 -3.414062 0.9375 -4.3125 C 0.9375 -5.195312 1.140625 -5.976562 1.546875 -6.65625 C 1.960938 -7.34375 2.515625 -7.875 3.203125 -8.25 C 3.898438 -8.625 4.648438 -8.8125 5.453125 -8.8125 C 6.765625 -8.8125 7.847656 -8.453125 8.703125 -7.734375 L 7.734375 -6.46875 C 7.453125 -6.675781 7.128906 -6.851562 6.765625 -7 C 6.410156 -7.144531 6.03125 -7.21875 5.625 -7.21875 C 5.113281 -7.21875 4.644531 -7.085938 4.21875 -6.828125 C 3.800781 -6.578125 3.46875 -6.226562 3.21875 -5.78125 C 2.976562 -5.34375 2.859375 -4.851562 2.859375 -4.3125 C 2.859375 -3.769531 2.984375 -3.273438 3.234375 -2.828125 C 3.492188 -2.390625 3.84375 -2.039062 4.28125 -1.78125 C 4.726562 -1.519531 5.238281 -1.390625 5.8125 -1.390625 C 6.507812 -1.390625 7.125 -1.597656 7.65625 -2.015625 Z M 8.640625 -0.8125 "/></g></g></g><g fill="#000000" fill-opacity="1"><g transform="translate(117.374837, 98.942639)"><g><path d="M 5.703125 -1.453125 C 6.421875 -1.453125 7.117188 -1.703125 7.796875 -2.203125 L 8.6875 -0.765625 C 8.226562 -0.460938 7.734375 -0.222656 7.203125 -0.046875 C 6.671875 0.117188 6.15625 0.203125 5.65625 0.203125 C 4.707031 0.203125 3.875 0.0078125 3.15625 -0.375 C 2.445312 -0.769531 1.898438 -1.3125 1.515625 -2 C 1.128906 -2.695312 0.9375 -3.484375 0.9375 -4.359375 C 0.9375 -5.203125 1.144531 -5.972656 1.5625 -6.671875 C 1.988281 -7.367188 2.566406 -7.921875 3.296875 -8.328125 C 4.023438 -8.734375 4.828125 -8.9375 5.703125 -8.9375 C 6.816406 -8.9375 7.75 -8.609375 8.5 -7.953125 C 9.257812 -7.296875 9.78125 -6.378906 10.0625 -5.203125 L 3.25 -2.8125 C 3.5 -2.382812 3.832031 -2.050781 4.25 -1.8125 C 4.675781 -1.570312 5.160156 -1.453125 5.703125 -1.453125 Z M 5.5625 -7.40625 C 4.769531 -7.40625 4.117188 -7.128906 3.609375 -6.578125 C 3.097656 -6.023438 2.84375 -5.316406 2.84375 -4.453125 C 2.84375 -4.242188 2.847656 -4.085938 2.859375 -3.984375 L 7.859375 -5.828125 C 7.648438 -6.296875 7.351562 -6.675781 6.96875 -6.96875 C 6.59375 -7.257812 6.125 -7.40625 5.5625 -7.40625 Z M 5.5625 -7.40625 "/></g></g></g><g fill="#000000" fill-opacity="1"><g transform="translate(128.147187, 98.942639)"><g><path d="M 3.546875 -6.546875 C 3.765625 -7.015625 4.078125 -7.425781 4.484375 -7.78125 C 4.890625 -8.144531 5.320312 -8.425781 5.78125 -8.625 C 6.238281 -8.820312 6.640625 -8.925781 6.984375 -8.9375 L 6.90625 -7.015625 C 6.28125 -7.035156 5.710938 -6.90625 5.203125 -6.625 C 4.703125 -6.351562 4.3125 -5.972656 4.03125 -5.484375 C 3.75 -4.992188 3.609375 -4.472656 3.609375 -3.921875 L 3.609375 0 L 1.671875 0 L 1.671875 -8.578125 L 3.40625 -8.578125 Z M 3.546875 -6.546875 "/></g></g></g></svg>