<svg xmlns="http://www.w3.org/2000/svg" xmlns:xlink="http://www.w3.org/1999/xlink" width="500" zoomAndPan="magnify" viewBox="0 0 375 374.999991" height="500" preserveAspectRatio="xMidYMid meet" version="1.0"><defs><clipPath id="ecc8c8917a"><path d="M 22.808594 22.808594 L 352.058594 22.808594 L 352.058594 352.058594 L 22.808594 352.058594 Z M 22.808594 22.808594 " clip-rule="nonzero"/></clipPath></defs><g clip-path="url(#ecc8c8917a)"><path fill="#000000" d="M 187.433594 22.808594 C 96.519531 22.808594 22.808594 96.519531 22.808594 187.433594 C 22.808594 278.34375 96.519531 352.058594 187.433594 352.058594 C 278.34375 352.058594 352.058594 278.34375 352.058594 187.433594 C 352.058594 96.519531 278.34375 22.808594 187.433594 22.808594 Z M 187.433594 333.015625 C 106.960938 333.015625 41.851562 267.902344 41.851562 187.433594 C 41.851562 106.960938 106.960938 41.851562 187.433594 41.851562 C 267.902344 41.851562 333.015625 106.960938 333.015625 187.433594 C 333.015625 267.902344 267.902344 333.015625 187.433594 333.015625 Z M 187.433594 333.015625 " fill-opacity="1" fill-rule="nonzero"/></g><path fill="#000000" d="M 174.609375 200.035156 C 147.398438 166.496094 145.097656 122.539062 165.160156 88.835938 C 152.300781 91.9375 139.929688 97.453125 128.796875 105.519531 C 83.351562 138.445312 75.726562 201.152344 111.765625 245.570312 C 147.800781 289.992188 213.855469 299.308594 259.300781 266.375 C 270.429688 258.3125 279.277344 248.453125 285.785156 237.519531 C 246.144531 247.085938 201.820312 233.574219 174.609375 200.035156 Z M 174.609375 200.035156 " fill-opacity="1" fill-rule="nonzero"/><path fill="#000000" d="M 107.710938 248.507812 C 69.957031 201.972656 77.976562 136.050781 125.582031 101.554688 C 136.976562 93.300781 149.8125 87.410156 163.738281 84.054688 C 165.75 83.566406 167.910156 84.296875 169.210938 85.898438 C 170.511719 87.5 170.695312 89.664062 169.675781 91.375 C 149.933594 124.535156 153.460938 166.035156 178.660156 197.097656 C 203.863281 228.15625 245.351562 242.148438 284.363281 232.738281 C 286.375 232.25 288.535156 232.980469 289.835938 234.585938 C 291.136719 236.1875 291.324219 238.347656 290.304688 240.0625 C 283.261719 251.894531 273.910156 262.082031 262.515625 270.339844 C 214.910156 304.835938 145.464844 295.042969 107.710938 248.507812 Z M 155.042969 97.144531 C 146.820312 100.210938 139.109375 104.339844 132.015625 109.480469 C 88.875 140.734375 81.613281 200.46875 115.820312 242.632812 C 150.027344 284.796875 212.953125 293.671875 256.089844 262.414062 C 263.1875 257.273438 269.40625 251.304688 274.675781 244.597656 C 235.476562 249.53125 195.679688 233.9375 170.558594 202.972656 C 145.433594 172.003906 139.828125 131.636719 155.042969 97.144531 Z M 155.042969 97.144531 " fill-opacity="1" fill-rule="nonzero"/></svg>