<svg xmlns="http://www.w3.org/2000/svg" version="1.1" xmlns:xlink="http://www.w3.org/1999/xlink" xmlns:svgjs="http://svgjs.com/svgjs" width="1920" height="1080" preserveAspectRatio="none" viewBox="0 0 1920 1080"><g mask="url(&quot;#SvgjsMask1027&quot;)" fill="none"><rect width="1920" height="1080" x="0" y="0" fill="rgba(255, 255, 255, 1)"></rect><path d="M126 1080L1206 0L1459.5 0L379.5 1080z" fill="url(#SvgjsLinearGradient1028)"></path><path d="M686.6 1080L1766.6 0L2071.1 0L991.1 1080z" fill="url(#SvgjsLinearGradient1028)"></path><path d="M1798 1080L718 0L49 0L1129 1080z" fill="url(#SvgjsLinearGradient1029)"></path><path d="M1248.4 1080L168.4000000000001 0L-439.0999999999999 0L640.9000000000001 1080z" fill="url(#SvgjsLinearGradient1029)"></path><path d="M1310.7094671396949 1080L1920 470.70946713969477L1920 1080z" fill="url(#SvgjsLinearGradient1028)"></path><path d="M0 1080L609.2905328603052 1080L 0 470.70946713969477z" fill="url(#SvgjsLinearGradient1029)"></path></g><defs><mask id="SvgjsMask1027"><rect width="1920" height="1080" fill="#ffffff"></rect></mask><linearGradient x1="0%" y1="100%" x2="100%" y2="0%" id="SvgjsLinearGradient1028"><stop stop-color="rgba(15, 70, 185, 0.2)" offset="0"></stop><stop stop-opacity="0" stop-color="rgba(15, 70, 185, 0.2)" offset="0.66"></stop></linearGradient><linearGradient x1="100%" y1="100%" x2="0%" y2="0%" id="SvgjsLinearGradient1029"><stop stop-color="rgba(15, 70, 185, 0.2)" offset="0"></stop><stop stop-opacity="0" stop-color="rgba(15, 70, 185, 0.2)" offset="0.66"></stop></linearGradient></defs></svg>