<svg xmlns="http://www.w3.org/2000/svg" xmlns:xlink="http://www.w3.org/1999/xlink" width="500" zoomAndPan="magnify" viewBox="0 0 375 374.999991" height="500" preserveAspectRatio="xMidYMid meet" version="1.0"><defs><clipPath id="27830a4c0a"><path d="M 129.464844 158.273438 L 262.453125 158.273438 L 262.453125 235.96875 L 129.464844 235.96875 Z M 129.464844 158.273438 " clip-rule="nonzero"/></clipPath><clipPath id="2a0c29f37f"><path d="M 129.464844 186.167969 L 262.453125 186.167969 L 262.453125 235.96875 L 129.464844 235.96875 Z M 129.464844 186.167969 " clip-rule="nonzero"/></clipPath><clipPath id="c8ffdeee40"><path d="M 112.5 140 L 169 140 L 169 208 L 112.5 208 Z M 112.5 140 " clip-rule="nonzero"/></clipPath></defs><g clip-path="url(#27830a4c0a)"><path fill="#ffb879" d="M 129.476562 187.527344 C 134.710938 191.210938 137.738281 192.355469 140.59375 194.101562 C 140.910156 198.675781 142.863281 206.6875 146.199219 209.386719 C 149.535156 212.089844 153.480469 214.253906 155.21875 216.371094 C 156.953125 218.484375 160.140625 222.230469 164.804688 223.078125 C 169.46875 223.929688 177.335938 223.953125 180.59375 224.886719 C 182.097656 225.96875 184.613281 225.597656 184.960938 220.851562 C 187.613281 222.300781 191.902344 224.382812 195.390625 226.019531 C 198.878906 227.652344 208.816406 231.152344 210.148438 231.609375 C 211.476562 232.066406 213.285156 233.070312 217.8125 234.246094 C 227.046875 236.640625 231.828125 236.941406 233.003906 232.636719 C 237.601562 233.964844 241.140625 234.339844 244.515625 234.890625 C 247.894531 235.445312 251.394531 235.617188 252.605469 233.191406 C 253.820312 230.769531 253.214844 229.882812 253.1875 228.679688 C 256.0625 229.492188 259.746094 229.757812 261.433594 227.734375 C 263.121094 225.714844 262.59375 221.972656 260.742188 220.039062 C 258.890625 218.109375 254.027344 216.34375 251.300781 215.417969 C 253.078125 215.074219 254.949219 213.144531 253.910156 210.664062 C 252.871094 208.179688 249.234375 204.792969 242.671875 203.25 C 240.339844 201.445312 236.597656 199.710938 234.570312 199.019531 C 232.292969 196.355469 225.675781 192.40625 224.097656 190.914062 C 222.515625 189.417969 212.113281 183.125 209.238281 181.378906 C 206.367188 179.632812 195.6875 171.101562 190.03125 169.285156 C 184.371094 167.472656 175.390625 166.578125 172.246094 166.257812 C 169.101562 165.9375 165.65625 164.910156 162.960938 162.855469 C 160.261719 160.800781 157.796875 159.449219 156.671875 158.488281 C 146.898438 159.878906 131.082031 172.945312 129.476562 187.527344 " fill-opacity="1" fill-rule="nonzero"/></g><g clip-path="url(#2a0c29f37f)"><path fill="#ffca9b" d="M 244.984375 233.492188 C 241.605469 232.941406 238.519531 232.671875 233.921875 231.347656 C 233.777344 231.871094 233.570312 232.328125 233.304688 232.71875 C 237.757812 233.976562 241.214844 234.351562 244.515625 234.890625 C 247.894531 235.445312 251.394531 235.617188 252.605469 233.191406 C 252.96875 232.46875 253.167969 231.882812 253.269531 231.382812 C 253.207031 231.515625 253.144531 231.652344 253.074219 231.792969 C 251.859375 234.21875 248.363281 234.046875 244.984375 233.492188 M 262.449219 224.417969 C 262.257812 225.082031 261.949219 225.703125 261.519531 226.214844 C 259.832031 228.238281 256.277344 228.300781 253.402344 227.488281 C 253.515625 227.957031 253.679688 228.359375 253.757812 228.832031 C 256.535156 229.519531 259.859375 229.625 261.433594 227.734375 C 262.167969 226.855469 262.480469 225.65625 262.449219 224.417969 M 218.28125 232.847656 C 213.753906 231.671875 211.945312 230.667969 210.613281 230.210938 C 209.28125 229.75 199.34375 226.253906 195.855469 224.621094 C 192.367188 222.984375 188.078125 220.902344 185.425781 219.453125 C 185.382812 220.027344 185.308594 220.535156 185.210938 220.988281 C 187.875 222.429688 192.007812 224.433594 195.390625 226.019531 C 198.878906 227.652344 208.816406 231.152344 210.148438 231.609375 C 211.476562 232.066406 213.285156 233.070312 217.8125 234.246094 C 226.492188 236.496094 231.238281 236.898438 232.753906 233.359375 C 230.527344 235.410156 225.695312 234.769531 218.28125 232.847656 M 253.910156 210.664062 C 253.851562 210.527344 253.785156 210.386719 253.710938 210.242188 C 253.984375 212.460938 252.34375 214.734375 250.800781 215.035156 C 251.074219 215.128906 251.382812 215.21875 251.710938 215.308594 C 253.347656 214.773438 254.871094 212.953125 253.910156 210.664062 M 181.058594 223.488281 C 177.800781 222.554688 169.9375 222.53125 165.269531 221.683594 C 160.605469 220.832031 157.417969 217.085938 155.683594 214.972656 C 153.949219 212.855469 150.003906 210.6875 146.667969 207.988281 C 143.332031 205.289062 141.378906 197.277344 141.058594 192.703125 C 138.390625 191.070312 134.445312 189.414062 129.664062 186.191406 C 129.589844 186.632812 129.527344 187.078125 129.476562 187.527344 C 134.710938 191.210938 137.738281 192.355469 140.59375 194.101562 C 140.910156 198.675781 142.863281 206.6875 146.199219 209.386719 C 149.535156 212.089844 153.480469 214.253906 155.21875 216.371094 C 156.953125 218.484375 160.140625 222.230469 164.804688 223.078125 C 169.46875 223.929688 177.335938 223.953125 180.59375 224.886719 C 181.917969 225.839844 184.027344 225.664062 184.75 222.363281 C 183.8125 224.292969 182.164062 224.285156 181.058594 223.488281 " fill-opacity="1" fill-rule="nonzero"/></g><path fill="#ffdcb9" d="M 171.511719 218.183594 C 171.101562 219.917969 171.910156 222.496094 175.230469 223.78125 C 177.984375 224.847656 179.824219 225.625 181.070312 225.464844 C 181.277344 225.4375 181.367188 225.191406 181.242188 225.027344 C 180.382812 223.910156 179.953125 222.078125 180.105469 218.554688 C 180.132812 217.890625 179.929688 216.996094 178.679688 216.417969 C 177.433594 215.839844 172.523438 213.933594 171.511719 218.183594 " fill-opacity="1" fill-rule="nonzero"/><path fill="#f49a50" d="M 184.960938 220.851562 C 185.285156 221.03125 185.632812 221.214844 186 221.410156 C 185.257812 212.535156 176.945312 206.257812 168.617188 204.480469 C 168.234375 202.808594 165.820312 199.941406 164.046875 198.855469 C 165.785156 200.636719 167.699219 203.511719 168.082031 205.03125 C 176.203125 206.734375 184.351562 212.625 184.960938 220.851562 " fill-opacity="1" fill-rule="nonzero"/><path fill="#f49a50" d="M 234.207031 232.964844 C 236.886719 223.96875 221.765625 218.835938 218.664062 219.042969 C 216.839844 216.449219 209.890625 212.617188 205.992188 211.5625 C 204.058594 209.234375 198.355469 206.417969 195.601562 206.464844 C 198.234375 207.109375 203.714844 210.164062 205.59375 212.367188 C 209.371094 213.375 216.320312 217.308594 218.097656 219.761719 C 221.117188 219.574219 235.832031 224.046875 233.003906 232.636719 C 233.414062 232.753906 233.8125 232.859375 234.207031 232.964844 " fill-opacity="1" fill-rule="nonzero"/><path fill="#f49a50" d="M 222.96875 213.15625 C 221.527344 211.839844 212.644531 206.917969 210.164062 206.296875 C 211.96875 207.15625 221.117188 212.449219 222.570312 214.078125 C 226.757812 215.011719 231.96875 216.695312 239.765625 219.351562 C 243.339844 220.523438 251.589844 223.121094 253.1875 228.679688 C 253.5625 228.785156 253.949219 228.882812 254.34375 228.964844 C 252.652344 222.835938 244.191406 219.839844 240.328125 218.8125 C 233.179688 216.128906 227.242188 214.121094 222.96875 213.15625 " fill-opacity="1" fill-rule="nonzero"/><path fill="#f49a50" d="M 233.136719 207.605469 C 229.613281 204.832031 220.785156 199.863281 218.707031 199.265625 C 220.726562 200.488281 228.757812 205.242188 232.28125 208.015625 C 235.25 209.109375 243.027344 212.359375 246.730469 214.359375 C 248.480469 214.679688 250.007812 215.164062 251.300781 215.417969 C 251.628906 215.351562 251.960938 215.234375 252.277344 215.070312 C 250.796875 214.585938 248.714844 214.109375 247.074219 213.808594 C 243.371094 211.8125 236.105469 208.699219 233.136719 207.605469 " fill-opacity="1" fill-rule="nonzero"/><path fill="#f49a50" d="M 189.453125 174.222656 C 189.453125 174.222656 189.484375 174.363281 189.539062 174.625 C 190.238281 178.167969 189.511719 182.296875 188.132812 185.628906 C 185.152344 193.722656 179.089844 193.324219 168.941406 201.023438 C 176.238281 194.167969 182.183594 193.542969 185.640625 188.152344 C 188.042969 184.425781 189.933594 178.992188 189.496094 174.628906 C 189.46875 174.363281 189.453125 174.222656 189.453125 174.222656 " fill-opacity="1" fill-rule="nonzero"/><path fill="#f49a50" d="M 205.71875 180.738281 C 197.371094 185.742188 194.15625 192.84375 195.203125 202.140625 C 192.273438 192.128906 197.558594 184.121094 205.71875 180.738281 " fill-opacity="1" fill-rule="nonzero"/><path fill="#f49a50" d="M 179.386719 194.359375 C 179.816406 194.117188 180.265625 193.636719 180.714844 193.4375 C 185.1875 191.464844 190.464844 191.730469 195.183594 193.265625 L 195.035156 193.78125 C 189.535156 192.683594 184.734375 192.566406 179.386719 194.359375 " fill-opacity="1" fill-rule="nonzero"/><path fill="#f49a50" d="M 170.503906 173.449219 C 175.429688 178.636719 179.574219 190.488281 173.609375 197.472656 C 173.457031 197.660156 173.332031 197.769531 172.78125 198.308594 L 172.640625 198.167969 C 179.140625 190.171875 174.148438 178.457031 170.503906 173.449219 " fill-opacity="1" fill-rule="nonzero"/><path fill="#cccccc" d="M 140.527344 194.070312 C 140.113281 193.816406 139.695312 193.578125 139.265625 193.335938 C 139.265625 193.335938 139.265625 193.332031 139.265625 193.332031 C 139.695312 193.570312 140.113281 193.808594 140.527344 194.0625 C 140.527344 194.0625 140.527344 194.066406 140.527344 194.070312 M 159.363281 160.351562 C 158.984375 160.105469 158.628906 159.871094 158.300781 159.65625 C 158.300781 159.65625 158.304688 159.652344 158.304688 159.652344 C 158.632812 159.871094 158.988281 160.101562 159.363281 160.351562 " fill-opacity="1" fill-rule="nonzero"/><path fill="#cc9361" d="M 140.527344 194.0625 C 140.113281 193.808594 139.695312 193.570312 139.265625 193.332031 C 139.695312 193.570312 140.113281 193.808594 140.527344 194.058594 L 140.527344 194.0625 M 140.328125 192.269531 C 139.902344 192.027344 139.445312 191.78125 138.964844 191.523438 C 137.664062 179.851562 147.34375 163.488281 158.300781 159.65625 C 158.628906 159.871094 158.984375 160.105469 159.363281 160.351562 C 159.890625 160.699219 160.464844 161.082031 161.066406 161.5 C 159.546875 161.804688 157.90625 162.445312 156.222656 163.425781 C 147.425781 168.515625 140.292969 180.898438 140.292969 191.082031 C 140.292969 191.484375 140.304688 191.882812 140.328125 192.269531 " fill-opacity="1" fill-rule="nonzero"/><path fill="#cca27c" d="M 140.527344 194.058594 C 140.113281 193.808594 139.695312 193.570312 139.265625 193.332031 C 139.132812 192.742188 139.035156 192.140625 138.964844 191.523438 C 139.445312 191.78125 139.902344 192.027344 140.328125 192.269531 C 140.367188 192.894531 140.433594 193.492188 140.527344 194.058594 " fill-opacity="1" fill-rule="nonzero"/><g clip-path="url(#c8ffdeee40)"><path fill="#423eaf" d="M 168.117188 153.0625 C 164.546875 151.292969 159.757812 151.71875 154.511719 154.753906 C 150.410156 157.128906 146.601562 160.765625 143.429688 165.042969 C 131.90625 180.628906 131.414062 200.292969 142.605469 203.4375 C 142.605469 203.4375 142.84375 204.09375 142.875 204.179688 C 143.25 205.140625 143.757812 206.1875 144.417969 207.289062 L 119.277344 192.753906 C 115.140625 190.753906 112.546875 185.949219 112.546875 178.929688 C 112.546875 165.652344 121.835938 149.503906 133.320312 142.875 C 139.261719 139.4375 144.628906 139.226562 148.414062 141.660156 L 168.117188 153.0625 " fill-opacity="1" fill-rule="nonzero"/></g><path fill="#8a86f2" d="M 143.429688 165.042969 C 131.90625 180.628906 131.414062 200.292969 142.605469 203.4375 C 142.390625 202.871094 142.175781 202.199219 142.0625 201.78125 C 128.917969 196.234375 136.667969 166.230469 154.511719 155.886719 C 164.777344 149.945312 173.324219 154.480469 173.542969 166.402344 C 173.847656 166.425781 174.179688 166.460938 174.53125 166.507812 C 174.53125 147.535156 156.5 147.417969 143.429688 165.042969 " fill-opacity="1" fill-rule="nonzero"/><path fill="#2b2873" d="M 173.542969 166.402344 C 173.507812 166.398438 172.09375 166.242188 172.066406 166.234375 C 171.382812 162.691406 169.699219 160.152344 167.328125 158.792969 C 167.328125 158.792969 167.621094 158.96875 158.921875 153.9375 C 167.117188 151.445312 173.351562 156.242188 173.542969 166.402344 " fill-opacity="1" fill-rule="nonzero"/><path fill="#cdcde6" d="M 167.175781 158.710938 C 164.546875 157.28125 161.113281 157.28125 157.28125 158.960938 C 146.242188 163.726562 136.492188 180.359375 138.101562 192.699219 C 138.039062 192.675781 137.980469 192.640625 137.933594 192.617188 C 137.992188 192.652344 138.050781 192.675781 138.101562 192.710938 C 138.535156 195.996094 139.785156 198.511719 141.601562 200.140625 C 141.742188 200.683594 141.894531 201.238281 142.050781 201.78125 C 131.289062 197.214844 134.582031 176.359375 145.773438 163.296875 C 149.183594 159.320312 153.992188 155.417969 158.921875 153.9375 L 167.175781 158.710938 " fill-opacity="1" fill-rule="nonzero"/><path fill="#b0b0d6" d="M 141.046875 197.566406 C 140.234375 196.421875 139.632812 195.003906 139.265625 193.347656 C 139.476562 193.453125 140.355469 193.957031 140.585938 194.105469 C 140.65625 195.121094 140.8125 196.300781 141.046875 197.566406 " fill-opacity="1" fill-rule="nonzero"/><path fill="#b0b0d6" d="M 170.9375 166.082031 C 168.011719 165.59375 165.320312 164.625 162.964844 162.855469 C 161.210938 161.523438 159.546875 160.472656 158.296875 159.65625 C 164.472656 157.445312 169.390625 160.0625 170.9375 166.082031 " fill-opacity="1" fill-rule="nonzero"/><path fill="#dbe5ff" d="M 172.066406 166.234375 C 171.691406 166.199219 171.3125 166.140625 170.9375 166.082031 C 169.390625 160.0625 164.472656 157.445312 158.296875 159.65625 C 146.765625 163.683594 136.640625 181.617188 139.265625 193.335938 C 139.265625 193.335938 139.675781 195.636719 141.046875 197.566406 C 141.1875 198.402344 141.378906 199.265625 141.601562 200.140625 C 138.84375 197.664062 137.921875 193.699219 137.921875 189.945312 C 137.921875 178.015625 147.019531 163.390625 157.28125 158.960938 C 164.722656 155.703125 170.628906 158.777344 172.066406 166.234375 " fill-opacity="1" fill-rule="nonzero"/><path fill="#eba978" d="M 204.507812 221.753906 C 201.710938 221.753906 199.714844 221.265625 198.636719 220.765625 C 194.574219 218.890625 188.234375 215.417969 181.402344 211.511719 C 178.355469 208.257812 174.148438 205.921875 169.839844 204.773438 C 169.371094 204.496094 168.90625 204.21875 168.445312 203.945312 C 167.757812 202.253906 165.640625 199.835938 164.046875 198.855469 C 165.242188 200.078125 166.519531 201.820312 167.324219 203.28125 C 156.914062 197.09375 148.292969 191.78125 148.292969 191.78125 C 147.5 191.324219 147.066406 190.710938 147.070312 190.054688 C 147.074219 189.003906 148.113281 188.402344 148.671875 188.078125 L 148.890625 187.949219 C 148.890625 187.949219 149.765625 187.441406 150.609375 186.957031 C 151.507812 186.433594 164.441406 178.957031 171.472656 174.894531 C 174.84375 180.324219 178.402344 190.371094 173.046875 197.644531 C 171.734375 198.589844 170.367188 199.6875 168.941406 201.023438 C 173.421875 197.628906 177.101562 195.804688 180.078125 194.136719 C 182.710938 193.328125 185.226562 192.980469 187.769531 192.980469 C 190.003906 192.980469 192.261719 193.246094 194.644531 193.707031 C 194.183594 196.289062 194.320312 199.125 195.203125 202.140625 C 194.351562 194.554688 196.332031 188.429688 201.628906 183.714844 L 232.6875 201.839844 C 233.34375 202.234375 233.875 202.777344 233.863281 203.546875 C 233.863281 203.632812 233.828125 205.230469 232.851562 207.386719 C 229.160156 204.578125 220.730469 199.847656 218.707031 199.265625 C 220.726562 200.488281 228.757812 205.242188 232.28125 208.015625 C 232.355469 208.042969 232.425781 208.070312 232.503906 208.097656 C 231.511719 209.988281 229.792969 212.199219 226.824219 214.171875 C 225.417969 213.761719 224.132812 213.417969 222.96875 213.15625 C 221.527344 211.839844 212.644531 206.917969 210.164062 206.296875 C 211.96875 207.15625 221.117188 212.449219 222.570312 214.078125 C 223.550781 214.296875 224.59375 214.558594 225.710938 214.863281 C 223.09375 216.425781 220.628906 217.65625 218.332031 218.621094 C 216.109375 216.050781 209.683594 212.5625 205.992188 211.5625 C 204.074219 209.253906 198.453125 206.464844 195.671875 206.464844 C 195.648438 206.464844 195.625 206.464844 195.601562 206.464844 C 198.234375 207.109375 203.714844 210.164062 205.59375 212.367188 C 208.996094 213.277344 214.972656 216.554688 217.421875 218.992188 C 212.136719 221.089844 207.773438 221.753906 204.507812 221.753906 M 178.671875 209.9375 C 176.683594 208.792969 174.683594 207.625 172.699219 206.457031 C 174.847656 207.34375 176.890625 208.515625 178.671875 209.9375 M 174.023438 196.960938 C 178.941406 190.488281 175.90625 180.324219 171.648438 174.792969 C 174.214844 173.308594 175.949219 172.304688 175.949219 172.304688 C 176.800781 171.8125 177.917969 171.566406 179.027344 171.566406 C 180.121094 171.566406 181.207031 171.804688 182.03125 172.28125 L 189.542969 176.664062 C 189.351562 180.589844 187.679688 184.988281 185.640625 188.152344 C 183.023438 192.230469 178.988281 193.582031 174.023438 196.960938 M 194.757812 193.132812 C 192.492188 192.4375 190.109375 192.035156 187.753906 192.035156 C 185.859375 192.035156 183.980469 192.296875 182.203125 192.871094 C 184.851562 191.164062 186.800781 189.246094 188.132812 185.628906 C 189.238281 182.964844 189.921875 179.789062 189.792969 176.808594 L 201.082031 183.398438 C 197.914062 185.832031 195.621094 189.167969 194.757812 193.132812 " fill-opacity="1" fill-rule="nonzero"/><path fill="#e18d4f" d="M 181.402344 211.511719 C 180.5 210.996094 179.585938 210.46875 178.671875 209.9375 C 176.890625 208.515625 174.847656 207.34375 172.699219 206.457031 C 171.738281 205.894531 170.785156 205.332031 169.839844 204.773438 C 174.148438 205.921875 178.355469 208.257812 181.402344 211.511719 M 168.445312 203.945312 C 168.070312 203.722656 167.695312 203.503906 167.324219 203.28125 C 166.519531 201.820312 165.242188 200.078125 164.046875 198.855469 C 165.640625 199.835938 167.757812 202.253906 168.445312 203.945312 " fill-opacity="1" fill-rule="nonzero"/><path fill="#e18d4f" d="M 217.421875 218.992188 C 214.972656 216.554688 208.996094 213.277344 205.59375 212.367188 C 203.714844 210.164062 198.234375 207.109375 195.601562 206.464844 C 195.625 206.464844 195.648438 206.464844 195.671875 206.464844 C 198.453125 206.464844 204.074219 209.253906 205.992188 211.5625 C 209.683594 212.5625 216.109375 216.050781 218.332031 218.621094 C 218.027344 218.75 217.722656 218.871094 217.421875 218.992188 " fill-opacity="1" fill-rule="nonzero"/><path fill="#e18d4f" d="M 225.710938 214.863281 C 224.59375 214.558594 223.550781 214.296875 222.570312 214.078125 C 221.117188 212.449219 211.96875 207.15625 210.164062 206.296875 C 212.644531 206.917969 221.527344 211.839844 222.96875 213.15625 C 224.132812 213.417969 225.417969 213.761719 226.824219 214.171875 C 226.570312 214.335938 226.308594 214.5 226.039062 214.664062 C 225.929688 214.730469 225.820312 214.796875 225.710938 214.863281 " fill-opacity="1" fill-rule="nonzero"/><path fill="#e18d4f" d="M 232.503906 208.097656 C 232.425781 208.070312 232.355469 208.042969 232.28125 208.015625 C 228.757812 205.242188 220.726562 200.488281 218.707031 199.265625 C 220.730469 199.847656 229.160156 204.578125 232.851562 207.386719 C 232.75 207.617188 232.632812 207.855469 232.503906 208.097656 " fill-opacity="1" fill-rule="nonzero"/><path fill="#e18d4f" d="M 168.941406 201.023438 C 170.367188 199.6875 171.734375 198.589844 173.046875 197.644531 C 172.917969 197.820312 172.78125 197.996094 172.640625 198.167969 L 172.78125 198.308594 C 173.332031 197.769531 173.457031 197.660156 173.609375 197.472656 C 173.753906 197.304688 173.890625 197.136719 174.023438 196.960938 C 178.988281 193.582031 183.023438 192.230469 185.640625 188.152344 C 187.679688 184.988281 189.351562 180.589844 189.542969 176.664062 L 189.792969 176.808594 C 189.921875 179.789062 189.238281 182.964844 188.132812 185.628906 C 186.800781 189.246094 184.851562 191.164062 182.203125 192.871094 C 181.699219 193.035156 181.203125 193.222656 180.714844 193.4375 C 180.265625 193.636719 179.816406 194.117188 179.386719 194.359375 C 179.617188 194.28125 179.847656 194.207031 180.078125 194.136719 C 177.101562 195.804688 173.421875 197.628906 168.941406 201.023438 " fill-opacity="1" fill-rule="nonzero"/><path fill="#e18d4f" d="M 195.203125 202.140625 C 194.320312 199.125 194.183594 196.289062 194.644531 193.707031 C 194.777344 193.730469 194.90625 193.757812 195.035156 193.78125 L 195.183594 193.265625 C 195.042969 193.222656 194.902344 193.175781 194.757812 193.132812 C 195.621094 189.167969 197.914062 185.832031 201.082031 183.398438 L 201.628906 183.714844 C 196.332031 188.429688 194.351562 194.554688 195.203125 202.140625 " fill-opacity="1" fill-rule="nonzero"/><path fill="#e18d4f" d="M 179.386719 194.359375 C 179.816406 194.117188 180.265625 193.636719 180.714844 193.4375 C 181.203125 193.222656 181.699219 193.035156 182.203125 192.871094 C 183.980469 192.296875 185.859375 192.035156 187.753906 192.035156 C 190.109375 192.035156 192.492188 192.4375 194.757812 193.132812 C 194.902344 193.175781 195.042969 193.222656 195.183594 193.265625 L 195.035156 193.78125 C 194.90625 193.757812 194.777344 193.730469 194.644531 193.707031 C 192.261719 193.246094 190.003906 192.980469 187.769531 192.980469 C 185.226562 192.980469 182.710938 193.328125 180.078125 194.136719 C 179.847656 194.207031 179.617188 194.28125 179.386719 194.359375 " fill-opacity="1" fill-rule="nonzero"/><path fill="#e18d4f" d="M 172.78125 198.308594 L 172.640625 198.167969 C 172.78125 197.996094 172.917969 197.820312 173.046875 197.644531 C 178.402344 190.371094 174.84375 180.324219 171.472656 174.894531 C 171.53125 174.859375 171.589844 174.824219 171.648438 174.792969 C 175.90625 180.324219 178.941406 190.488281 174.023438 196.960938 C 173.890625 197.136719 173.753906 197.304688 173.609375 197.472656 C 173.457031 197.660156 173.332031 197.769531 172.78125 198.308594 " fill-opacity="1" fill-rule="nonzero"/><path fill="#fed645" d="M 166.164062 179.488281 C 168.769531 181.292969 180.488281 188.976562 182.523438 190.292969 C 184.558594 191.609375 192.015625 196.300781 192.585938 196.515625 C 193.160156 196.726562 193.582031 196.273438 193.414062 195.769531 C 192.90625 194.265625 191.105469 190.613281 189.832031 188.597656 C 188.5625 186.578125 186.105469 182.800781 183.476562 180.019531 C 180.847656 177.238281 176.632812 174.160156 174.914062 173.140625 C 173.199219 172.121094 169.875 170.210938 168.09375 169.382812 C 166.3125 168.554688 162.988281 167.238281 161.523438 166.964844 C 160.0625 166.6875 159.894531 166.984375 159.492188 167.515625 C 159.089844 168.046875 157.859375 169.894531 156.546875 172.675781 C 157.140625 173.140625 163.558594 177.683594 166.164062 179.488281 Z M 152.550781 168.097656 C 153.058594 167.796875 155.207031 166.125 156.0625 165.359375 C 156.921875 164.597656 158.054688 163.613281 158.792969 163.015625 C 159.578125 163.226562 167.308594 166.75 170.890625 168.808594 C 174.472656 170.871094 178.347656 173.542969 181.019531 175.878906 C 182.457031 177.140625 184.058594 178.84375 185.5625 180.644531 C 186.453125 181.714844 187.3125 182.820312 188.085938 183.886719 C 188.125 183.9375 188.160156 183.988281 188.199219 184.042969 C 188.257812 184.121094 188.3125 184.203125 188.371094 184.28125 C 188.40625 184.328125 188.4375 184.375 188.472656 184.425781 C 188.671875 184.707031 188.863281 184.988281 189.046875 185.261719 C 191.1875 188.449219 193.964844 193.140625 195.214844 194.753906 C 196.464844 196.367188 198.496094 197.535156 200.785156 199.082031 C 203.074219 200.632812 207.417969 202.925781 208.4375 203.476562 C 209.453125 204.03125 213.414062 206.527344 213.796875 206.941406 C 213.535156 206.894531 212.953125 206.925781 212.589844 206.980469 C 211.960938 206.359375 211.042969 205.953125 210.300781 205.808594 C 209.601562 205.675781 207.886719 205.699219 206.96875 205.691406 C 206.058594 205.683594 205.367188 205.644531 204.644531 205.53125 C 203.917969 205.421875 203.285156 205.277344 202.878906 205.339844 C 202.636719 205.378906 202.429688 205.425781 202.320312 205.558594 C 196.621094 202.347656 158.445312 178.722656 151.054688 172.394531 C 151.320312 171.871094 151.546875 171.238281 151.375 170.710938 C 151.25 170.316406 150.929688 169.945312 150.714844 169.609375 C 151.152344 169 151.601562 168.46875 151.851562 168.191406 C 152.015625 168.285156 152.246094 168.28125 152.550781 168.097656 " fill-opacity="1" fill-rule="nonzero"/><path fill="#ffa81c" d="M 150.644531 168.121094 C 151.152344 167.378906 152.042969 166.347656 152.441406 165.964844 C 151.695312 167.046875 151.457031 167.605469 151.597656 167.910156 C 151.65625 168.03125 151.738281 168.132812 151.851562 168.191406 C 151.601562 168.46875 151.152344 169 150.714844 169.609375 C 150.605469 169.441406 150.523438 169.28125 150.503906 169.132812 C 150.4375 168.6875 150.59375 168.34375 150.644531 168.121094 " fill-opacity="1" fill-rule="nonzero"/><path fill="#3d201c" d="M 190.292969 207.265625 C 190.699219 204.820312 192.882812 204.097656 195.386719 205.265625 C 194.824219 206.109375 192.390625 209.761719 192.035156 209.996094 C 191.632812 210.261719 191.285156 210.355469 190.867188 210.292969 C 190.4375 209.527344 190.117188 208.316406 190.292969 207.265625 " fill-opacity="1" fill-rule="nonzero"/><path fill="#423eaf" d="M 191.519531 209.152344 C 191.519531 212.261719 193.699219 216.039062 196.386719 217.59375 C 199.074219 219.152344 201.25 217.890625 201.25 214.78125 C 201.25 211.671875 199.074219 207.890625 196.386719 206.335938 C 193.699219 204.78125 191.519531 206.042969 191.519531 209.152344 " fill-opacity="1" fill-rule="nonzero"/><path fill="#312e82" d="M 197.730469 208.746094 C 199.636719 210.710938 200.582031 213.742188 199.839844 215.519531 C 199.097656 217.296875 196.949219 217.148438 195.039062 215.183594 C 193.132812 213.222656 192.1875 210.1875 192.929688 208.410156 C 193.675781 206.632812 195.824219 206.785156 197.730469 208.746094 " fill-opacity="1" fill-rule="nonzero"/><path fill="#6460c7" d="M 197.59375 209.074219 C 199.308594 210.839844 200.15625 213.5625 199.488281 215.160156 C 198.820312 216.753906 196.890625 216.621094 195.175781 214.855469 C 193.464844 213.09375 192.617188 210.371094 193.28125 208.773438 C 193.949219 207.175781 195.878906 207.3125 197.59375 209.074219 " fill-opacity="1" fill-rule="nonzero"/><path fill="#cdcde6" d="M 198.160156 212.585938 C 197.523438 212.382812 197.050781 211.261719 197.441406 210.886719 C 197.738281 210.597656 198.066406 210.367188 198.394531 210.199219 C 198.964844 211.046875 199.359375 212 199.53125 212.894531 C 199.117188 212.847656 198.648438 212.75 198.160156 212.585938 Z M 198.097656 216.164062 C 197.808594 215.597656 197.519531 214.96875 197.269531 214.324219 C 196.941406 213.484375 197.488281 213.019531 198.105469 213.621094 C 198.578125 214.078125 199.03125 214.578125 199.425781 215.054688 C 199.164062 215.722656 198.6875 216.082031 198.097656 216.164062 Z M 197.011719 213.195312 C 196.9375 213.085938 196.925781 212.953125 196.988281 212.902344 C 197.046875 212.855469 197.15625 212.902344 197.226562 213.015625 C 197.300781 213.125 197.3125 213.257812 197.25 213.308594 C 197.191406 213.355469 197.085938 213.308594 197.011719 213.195312 Z M 196.585938 210 C 196.523438 210.710938 195.683594 210.492188 195.308594 209.65625 C 195.023438 209.03125 194.78125 208.402344 194.589844 207.832031 C 195.179688 207.71875 195.890625 207.902344 196.609375 208.375 C 196.640625 208.902344 196.636719 209.464844 196.585938 210 Z M 196.089844 210.539062 C 196.179688 210.566406 196.273438 210.683594 196.296875 210.800781 C 196.320312 210.921875 196.265625 211 196.175781 210.972656 C 196.085938 210.949219 195.992188 210.832031 195.964844 210.710938 C 195.941406 210.59375 195.996094 210.515625 196.089844 210.539062 Z M 196.089844 212.65625 C 196.175781 212.746094 196.222656 212.886719 196.1875 212.96875 C 196.152344 213.050781 196.054688 213.042969 195.964844 212.953125 C 195.878906 212.863281 195.832031 212.722656 195.867188 212.640625 C 195.902344 212.558594 196 212.566406 196.089844 212.65625 Z M 195.246094 211.242188 C 195.253906 211.136719 195.332031 211.101562 195.425781 211.164062 C 195.523438 211.222656 195.59375 211.359375 195.585938 211.464844 C 195.582031 211.570312 195.5 211.605469 195.40625 211.546875 C 195.3125 211.484375 195.242188 211.351562 195.246094 211.242188 Z M 196.234375 215.644531 C 195.515625 215.191406 194.847656 214.5 194.292969 213.632812 C 194.523438 213.332031 194.8125 213.046875 195.144531 212.8125 C 195.574219 212.496094 196.386719 213.324219 196.378906 214.074219 C 196.371094 214.648438 196.316406 215.183594 196.234375 215.644531 Z M 193.265625 211.175781 C 193.082031 210.300781 193.105469 209.480469 193.390625 208.835938 C 193.816406 209.207031 194.273438 209.652344 194.71875 210.136719 C 195.3125 210.78125 195.273438 211.761719 194.648438 211.625 C 194.179688 211.523438 193.707031 211.363281 193.265625 211.175781 Z M 197.089844 211.621094 C 197.171875 211.605469 197.277344 211.695312 197.328125 211.816406 C 197.378906 211.9375 197.355469 212.046875 197.277344 212.058594 C 197.195312 212.070312 197.089844 211.984375 197.039062 211.863281 C 196.988281 211.742188 197.011719 211.632812 197.089844 211.621094 Z M 199.769531 212.917969 C 199.578125 211.980469 199.167969 210.996094 198.578125 210.105469 C 198.027344 209.25 197.335938 208.527344 196.589844 208.042969 C 195.839844 207.589844 195.101562 207.398438 194.484375 207.503906 C 193.875 207.566406 193.390625 207.9375 193.109375 208.597656 C 192.863281 209.28125 192.828125 210.132812 193.015625 211.066406 C 193.175781 211.972656 193.574219 212.941406 194.148438 213.820312 C 194.722656 214.675781 195.421875 215.410156 196.183594 215.90625 C 196.925781 216.390625 197.671875 216.578125 198.265625 216.480469 C 198.890625 216.382812 199.375 215.988281 199.648438 215.328125 C 199.921875 214.667969 199.945312 213.796875 199.769531 212.917969 " fill-opacity="1" fill-rule="nonzero"/><path fill="#dbe5ff" d="M 195.714844 211.285156 C 195.574219 211.621094 195.753906 212.191406 196.117188 212.5625 C 196.476562 212.933594 196.882812 212.964844 197.023438 212.628906 C 197.164062 212.292969 196.984375 211.71875 196.625 211.347656 C 196.261719 210.976562 195.855469 210.949219 195.714844 211.285156 " fill-opacity="1" fill-rule="nonzero"/><path fill="#1f1c63" d="M 201.25 214.78125 C 201.25 211.671875 199.074219 207.890625 196.386719 206.335938 C 194.296875 205.128906 192.511719 205.621094 191.824219 207.363281 C 192.066406 206.4375 192.703125 205.820312 193.246094 205.429688 C 193.582031 205.1875 195.867188 203.917969 195.867188 203.917969 L 200.320312 207.476562 L 202.945312 216.300781 C 202.945312 216.300781 200.679688 217.605469 200.4375 217.742188 C 200.101562 217.933594 199.449219 218.144531 199.179688 218.191406 C 200.433594 217.898438 201.25 216.6875 201.25 214.78125 " fill-opacity="1" fill-rule="nonzero"/><path fill="#fed645" d="M 196.03125 201.800781 C 199.003906 203.613281 201.246094 204.953125 202.320312 205.558594 C 202.25 205.648438 202.226562 205.773438 202.265625 205.960938 C 202.371094 206.429688 202.671875 207.277344 203.117188 207.902344 C 203.5625 208.53125 204.09375 208.988281 205.171875 209.527344 C 206.253906 210.070312 209.304688 210.292969 210.535156 210.1875 C 211.742188 210.085938 214.234375 209.582031 216.863281 208.636719 C 219.515625 207.679688 223.023438 206.074219 225.777344 203.796875 C 227.210938 202.613281 229.441406 200.65625 230.136719 198.929688 C 230.507812 198.019531 230.492188 196.765625 230.269531 196.152344 C 230.546875 196.640625 230.804688 197.558594 230.875 197.894531 C 230.90625 197.960938 231.003906 199.046875 230.886719 199.761719 C 230.777344 200.402344 230.261719 201.90625 230.050781 202.226562 C 228.457031 204.316406 224.699219 206.949219 223.4375 207.660156 C 221.855469 208.546875 216.527344 210.882812 214.757812 211.160156 C 214.652344 211.171875 213.789062 211.253906 212.644531 211.324219 C 210.539062 211.429688 209.039062 211.425781 207.027344 210.863281 C 205.4375 210.421875 202.101562 208.679688 200.746094 207.871094 C 202.539062 210.261719 203.023438 215.082031 206.886719 216.554688 C 206.113281 216.484375 203.671875 215.882812 202.621094 215.597656 C 202.398438 214.632812 202.144531 213.488281 201.957031 212.871094 C 201.625 211.773438 200.273438 209.289062 199.273438 207.9375 C 198.269531 206.582031 197.476562 205.785156 195.21875 204.6875 C 194.570312 204.371094 193.980469 204.214844 193.453125 204.167969 C 193.464844 203.191406 194.402344 201.941406 196.03125 201.800781 " fill-opacity="1" fill-rule="nonzero"/><path fill="#3d201c" d="M 149.753906 183.449219 C 149.78125 182.523438 150.246094 181.710938 151.085938 181.289062 C 151.941406 180.859375 153.1875 180.839844 154.75 181.539062 C 153.960938 182.191406 151.164062 184.527344 150.71875 185.136719 C 150.507812 185.125 150.378906 185.125 150.082031 184.914062 C 149.691406 184.371094 149.746094 183.820312 149.753906 183.449219 " fill-opacity="1" fill-rule="nonzero"/><path fill="#423eaf" d="M 150.53125 185.433594 C 150.53125 188.542969 152.710938 192.324219 155.398438 193.878906 C 158.082031 195.429688 160.261719 194.171875 160.261719 191.0625 C 160.261719 187.953125 158.082031 184.171875 155.398438 182.617188 C 152.710938 181.0625 150.53125 182.324219 150.53125 185.433594 " fill-opacity="1" fill-rule="nonzero"/><path fill="#312e82" d="M 156.742188 185.03125 C 158.648438 186.992188 159.59375 190.023438 158.851562 191.800781 C 158.109375 193.578125 155.957031 193.429688 154.050781 191.464844 C 152.144531 189.503906 151.199219 186.46875 151.941406 184.691406 C 152.6875 182.914062 154.835938 183.066406 156.742188 185.03125 " fill-opacity="1" fill-rule="nonzero"/><path fill="#6460c7" d="M 156.605469 185.355469 C 158.316406 187.121094 159.167969 189.84375 158.5 191.441406 C 157.832031 193.035156 155.902344 192.902344 154.1875 191.136719 C 152.476562 189.375 151.625 186.652344 152.292969 185.054688 C 152.960938 183.457031 154.890625 183.59375 156.605469 185.355469 " fill-opacity="1" fill-rule="nonzero"/><path fill="#cdcde6" d="M 157.171875 188.867188 C 156.535156 188.664062 156.0625 187.542969 156.453125 187.171875 C 156.75 186.882812 157.078125 186.648438 157.402344 186.480469 C 157.976562 187.328125 158.371094 188.28125 158.542969 189.175781 C 158.128906 189.128906 157.65625 189.027344 157.171875 188.867188 Z M 157.109375 192.445312 C 156.820312 191.878906 156.53125 191.25 156.28125 190.605469 C 155.953125 189.765625 156.5 189.300781 157.113281 189.902344 C 157.589844 190.359375 158.042969 190.855469 158.4375 191.335938 C 158.175781 192.003906 157.699219 192.363281 157.109375 192.445312 Z M 156.023438 189.476562 C 155.949219 189.367188 155.9375 189.234375 156 189.183594 C 156.058594 189.136719 156.164062 189.183594 156.238281 189.296875 C 156.3125 189.40625 156.320312 189.539062 156.261719 189.589844 C 156.203125 189.636719 156.09375 189.589844 156.023438 189.476562 Z M 155.59375 186.28125 C 155.535156 186.992188 154.695312 186.773438 154.320312 185.9375 C 154.035156 185.3125 153.792969 184.683594 153.601562 184.113281 C 154.191406 184 154.898438 184.179688 155.621094 184.65625 C 155.652344 185.183594 155.644531 185.746094 155.59375 186.28125 Z M 155.101562 186.820312 C 155.191406 186.847656 155.285156 186.964844 155.308594 187.082031 C 155.332031 187.203125 155.277344 187.28125 155.1875 187.253906 C 155.09375 187.230469 155.003906 187.113281 154.976562 186.992188 C 154.953125 186.875 155.007812 186.796875 155.101562 186.820312 Z M 155.101562 188.9375 C 155.1875 189.027344 155.230469 189.167969 155.199219 189.25 C 155.164062 189.332031 155.066406 189.324219 154.976562 189.234375 C 154.890625 189.144531 154.84375 189.003906 154.878906 188.921875 C 154.914062 188.839844 155.011719 188.847656 155.101562 188.9375 Z M 154.257812 187.527344 C 154.261719 187.417969 154.34375 187.382812 154.4375 187.445312 C 154.53125 187.503906 154.605469 187.640625 154.597656 187.746094 C 154.59375 187.851562 154.511719 187.886719 154.417969 187.828125 C 154.324219 187.765625 154.253906 187.632812 154.257812 187.527344 Z M 155.246094 191.925781 C 154.527344 191.472656 153.859375 190.78125 153.300781 189.914062 C 153.535156 189.613281 153.824219 189.328125 154.15625 189.09375 C 154.585938 188.777344 155.398438 189.605469 155.386719 190.355469 C 155.382812 190.929688 155.328125 191.464844 155.246094 191.925781 Z M 152.277344 187.457031 C 152.09375 186.582031 152.117188 185.761719 152.402344 185.117188 C 152.828125 185.492188 153.285156 185.933594 153.730469 186.421875 C 154.324219 187.0625 154.285156 188.046875 153.660156 187.90625 C 153.191406 187.804688 152.714844 187.644531 152.277344 187.457031 Z M 156.101562 187.898438 C 156.183594 187.886719 156.289062 187.976562 156.339844 188.097656 C 156.390625 188.21875 156.367188 188.328125 156.289062 188.339844 C 156.207031 188.355469 156.101562 188.265625 156.050781 188.144531 C 156 188.023438 156.023438 187.914062 156.101562 187.898438 Z M 158.78125 189.199219 C 158.589844 188.261719 158.179688 187.277344 157.589844 186.386719 C 157.039062 185.53125 156.347656 184.808594 155.597656 184.324219 C 154.851562 183.871094 154.113281 183.679688 153.496094 183.785156 C 152.886719 183.847656 152.398438 184.21875 152.121094 184.878906 C 151.875 185.5625 151.839844 186.414062 152.027344 187.34375 C 152.183594 188.253906 152.585938 189.222656 153.160156 190.101562 C 153.734375 190.957031 154.429688 191.691406 155.195312 192.1875 C 155.9375 192.671875 156.683594 192.859375 157.273438 192.761719 C 157.902344 192.664062 158.386719 192.269531 158.660156 191.609375 C 158.933594 190.949219 158.957031 190.078125 158.78125 189.199219 " fill-opacity="1" fill-rule="nonzero"/><path fill="#dbe5ff" d="M 154.726562 187.566406 C 154.585938 187.902344 154.765625 188.472656 155.125 188.84375 C 155.488281 189.214844 155.894531 189.246094 156.035156 188.910156 C 156.175781 188.574219 155.996094 188 155.636719 187.628906 C 155.273438 187.257812 154.867188 187.230469 154.726562 187.566406 " fill-opacity="1" fill-rule="nonzero"/><path fill="#1f1c63" d="M 160.261719 191.0625 C 160.261719 187.953125 158.082031 184.171875 155.398438 182.617188 C 153.308594 181.410156 151.523438 181.902344 150.835938 183.644531 C 151.078125 182.71875 151.714844 182.101562 152.257812 181.710938 C 152.59375 181.46875 154.878906 180.199219 154.878906 180.199219 L 159.332031 183.757812 L 161.957031 192.582031 C 161.957031 192.582031 159.691406 193.890625 159.449219 194.023438 C 159.113281 194.214844 158.460938 194.425781 158.191406 194.472656 C 159.445312 194.179688 160.261719 192.96875 160.261719 191.0625 " fill-opacity="1" fill-rule="nonzero"/><path fill="#ffa81c" d="M 149.414062 173.890625 C 149.539062 174.046875 149.65625 174.101562 149.785156 174.085938 C 150.042969 174.054688 150.660156 173.128906 150.964844 172.574219 C 150.992188 172.515625 151.023438 172.457031 151.054688 172.394531 C 157.050781 177.523438 183.28125 194.027344 196.03125 201.800781 C 194.402344 201.941406 193.464844 203.191406 193.453125 204.167969 C 192.136719 204.042969 191.207031 204.582031 190.753906 205.007812 C 190.117188 205.601562 189.78125 206.511719 189.8125 207.320312 C 189.84375 208.125 189.769531 208.167969 189.535156 208.042969 C 188.945312 207.71875 186.546875 206.28125 185.699219 205.75 C 184.851562 205.21875 175.871094 199.828125 174.640625 199.039062 C 173.410156 198.253906 167.011719 194.308594 166.058594 193.648438 C 165.105469 192.992188 162.070312 191.234375 161.847656 190.898438 C 161.625 190.566406 160.765625 188.304688 160.195312 187.140625 C 159.625 185.980469 158.621094 184.433594 157.097656 182.84375 C 155.570312 181.25 154.238281 180.835938 153.363281 180.550781 C 152.691406 180.328125 151.617188 180.335938 150.777344 180.746094 C 150.121094 179.425781 149.074219 176.472656 149.414062 173.890625 " fill-opacity="1" fill-rule="nonzero"/><path fill="#e68d00" d="M 149.363281 184.226562 C 149.160156 182.828125 149.523438 181.363281 150.777344 180.746094 C 150.121094 179.425781 149.074219 176.472656 149.414062 173.890625 C 149.300781 173.742188 149.179688 173.503906 149.039062 173.148438 C 149.007812 173.558594 148.992188 174.324219 149.023438 174.785156 C 148.800781 175.121094 148.292969 175.578125 148.214844 176.585938 C 148.042969 178.761719 147.988281 182.410156 149.363281 184.226562 " fill-opacity="1" fill-rule="nonzero"/><path fill="#e67300" d="M 149.363281 173.816406 C 149.378906 173.839844 149.398438 173.867188 149.414062 173.890625 C 149.433594 173.914062 149.453125 173.933594 149.472656 173.953125 C 149.097656 176.964844 150.609375 180.5 151.144531 181.261719 C 151.125 181.269531 151.105469 181.28125 151.085938 181.289062 L 151.027344 181.320312 C 150.46875 180.496094 148.929688 176.863281 149.363281 173.816406 " fill-opacity="1" fill-rule="nonzero"/><path fill="#e68d00" d="M 149.363281 184.226562 C 149.570312 184.5 149.808594 184.734375 150.082031 184.914062 C 149.691406 184.371094 149.746094 183.820312 149.753906 183.449219 C 149.78125 182.523438 150.246094 181.710938 151.085938 181.289062 C 151.984375 180.835938 153.320312 180.839844 155 181.652344 C 158.449219 183.324219 161.082031 189.148438 161.945312 192.90625 C 162.753906 193.445312 171.304688 198.796875 174.957031 201.027344 C 178.613281 203.253906 188.65625 209.003906 190.867188 210.292969 C 190.4375 209.527344 190.117188 208.316406 190.292969 207.265625 C 190.925781 203.460938 195.859375 203.824219 199.601562 208.996094 C 200.492188 210.230469 201.738281 212.667969 202.183594 215.472656 C 202.265625 215.863281 202.425781 216.558594 202.585938 216.71875 C 202.625 216.757812 202.75 216.824219 202.949219 216.910156 C 202.699219 216.0625 202.25 213.824219 201.957031 212.871094 C 201.625 211.773438 200.273438 209.289062 199.273438 207.9375 C 198.269531 206.582031 197.476562 205.785156 195.21875 204.6875 C 192.964844 203.589844 191.390625 204.410156 190.753906 205.007812 C 190.117188 205.601562 189.78125 206.511719 189.8125 207.320312 C 189.84375 208.125 189.769531 208.167969 189.535156 208.042969 C 188.945312 207.71875 186.546875 206.28125 185.699219 205.75 C 184.851562 205.21875 175.871094 199.828125 174.640625 199.039062 C 173.410156 198.253906 167.011719 194.308594 166.058594 193.648438 C 165.105469 192.992188 162.070312 191.234375 161.847656 190.898438 C 161.625 190.566406 160.765625 188.304688 160.195312 187.140625 C 159.625 185.980469 158.621094 184.433594 157.097656 182.84375 C 155.570312 181.25 154.238281 180.835938 153.363281 180.550781 C 152.691406 180.328125 151.617188 180.335938 150.777344 180.746094 C 149.523438 181.363281 149.160156 182.828125 149.363281 184.226562 " fill-opacity="1" fill-rule="nonzero"/><path fill="#1f1c63" d="M 207.359375 215.351562 C 207.667969 215.800781 207.960938 216.242188 209.179688 216.578125 C 210.257812 216.875 212.144531 216.882812 213.785156 216.691406 C 215.429688 216.5 217.578125 215.84375 219.496094 215.046875 C 221.414062 214.253906 224.09375 213.105469 226.753906 210.84375 C 229.414062 208.582031 229.816406 207.933594 230.398438 206.386719 C 230.746094 205.453125 230.800781 204.59375 230.820312 204.464844 C 230.988281 204.242188 231.085938 204.09375 231.160156 203.914062 C 231.238281 203.53125 231.257812 202.585938 231.1875 202.15625 C 230.898438 203.246094 230.28125 204.972656 229.550781 205.824219 C 228.902344 206.523438 227.367188 208.050781 223.957031 210.132812 C 220.554688 212.207031 217.355469 213.269531 215.6875 213.757812 C 214.992188 213.964844 212.558594 214.433594 210.230469 214.441406 C 209.238281 214.441406 208.277344 214.355469 207.636719 214.304688 C 207.378906 214.320312 207.203125 214.351562 207.109375 214.441406 C 206.960938 214.585938 207.023438 214.859375 207.359375 215.351562 " fill-opacity="1" fill-rule="nonzero"/><path fill="#ffa81c" d="M 200.746094 207.871094 C 202.40625 210.085938 203.039062 214.65625 206.238281 216.257812 C 206.433594 216.367188 206.703125 216.484375 206.886719 216.554688 C 207.675781 216.808594 208.882812 217.203125 210.164062 217.222656 C 209.308594 217.191406 208.691406 217.054688 208.074219 216.707031 C 207.113281 216.167969 206.636719 215.085938 206.605469 214.832031 C 206.574219 214.574219 206.613281 214.304688 206.9375 214.273438 C 207.050781 214.261719 207.296875 214.277344 207.636719 214.304688 C 208.277344 214.355469 209.238281 214.441406 210.230469 214.441406 C 212.558594 214.433594 214.992188 213.964844 215.671875 213.761719 C 215.285156 213.003906 214.964844 212.003906 214.757812 211.160156 C 214.675781 211.167969 213.507812 211.289062 212.058594 211.351562 C 210.152344 211.421875 208.816406 211.363281 207.027344 210.863281 C 205.4375 210.421875 202.101562 208.679688 200.746094 207.871094 " fill-opacity="1" fill-rule="nonzero"/><path fill="#e68d00" d="M 214.757812 211.160156 C 214.964844 212.003906 215.285156 213.003906 215.6875 213.757812 C 217.355469 213.269531 220.554688 212.207031 223.957031 210.132812 C 227.367188 208.050781 228.902344 206.523438 229.550781 205.824219 L 229.585938 205.78125 C 229.796875 204.800781 230.035156 203.210938 230.050781 202.226562 C 228.457031 204.316406 224.699219 206.949219 223.4375 207.660156 C 221.855469 208.546875 216.527344 210.882812 214.757812 211.160156 " fill-opacity="1" fill-rule="nonzero"/><path fill="#ffa81c" d="M 231.222656 202.023438 C 231.28125 201.789062 231.132812 198.945312 230.875 197.914062 C 230.921875 198.136719 230.996094 199.109375 230.886719 199.761719 C 230.777344 200.402344 230.261719 201.90625 230.050781 202.226562 C 230.035156 203.210938 229.796875 204.800781 229.585938 205.78125 C 230.332031 204.859375 230.933594 203.167969 231.222656 202.023438 " fill-opacity="1" fill-rule="nonzero"/><path fill="#fed645" d="M 206.605469 214.832031 C 206.636719 215.085938 207.113281 216.167969 208.074219 216.707031 C 209.03125 217.246094 209.992188 217.273438 211.863281 217.210938 C 213.730469 217.144531 215.398438 216.824219 217.253906 216.195312 C 219.152344 215.550781 221.488281 214.542969 223.402344 213.460938 C 225.316406 212.378906 226.582031 211.304688 227.390625 210.660156 C 228.199219 210.011719 229.148438 209.242188 230.070312 207.882812 C 231.03125 206.464844 231.289062 205.339844 231.160156 203.914062 C 231.085938 204.09375 230.988281 204.242188 230.820312 204.464844 C 230.800781 204.59375 230.746094 205.453125 230.398438 206.386719 C 229.816406 207.933594 229.414062 208.582031 226.753906 210.84375 C 224.09375 213.105469 221.414062 214.253906 219.496094 215.046875 C 217.578125 215.84375 215.429688 216.5 213.785156 216.691406 C 212.144531 216.882812 210.257812 216.875 209.179688 216.578125 C 207.960938 216.242188 207.667969 215.800781 207.359375 215.351562 C 207.023438 214.859375 206.960938 214.585938 207.109375 214.441406 C 207.203125 214.351562 207.378906 214.320312 207.636719 214.304688 C 207.296875 214.277344 207.050781 214.261719 206.9375 214.273438 C 206.613281 214.304688 206.574219 214.574219 206.605469 214.832031 " fill-opacity="1" fill-rule="nonzero"/><path fill="#e68d00" d="M 202.621094 215.597656 C 202.746094 216.128906 202.859375 216.601562 202.949219 216.910156 C 204.238281 217.453125 208.632812 218.671875 213.464844 217.632812 C 218.636719 216.519531 226.527344 212.808594 229.839844 208.515625 C 230.917969 207.121094 231.519531 205.574219 231.160156 203.914062 C 231.289062 205.339844 231.03125 206.464844 230.070312 207.882812 C 229.148438 209.242188 228.199219 210.011719 227.390625 210.660156 C 226.582031 211.304688 225.316406 212.378906 223.402344 213.460938 C 221.488281 214.542969 219.152344 215.550781 217.253906 216.195312 C 215.398438 216.824219 213.730469 217.144531 211.863281 217.210938 C 209.691406 217.285156 208.964844 217.226562 206.886719 216.554688 C 206.113281 216.484375 203.671875 215.882812 202.621094 215.597656 " fill-opacity="1" fill-rule="nonzero"/><path fill="#ffa81c" d="M 185.5625 180.644531 C 184.058594 178.84375 182.457031 177.140625 181.019531 175.878906 C 178.347656 173.542969 174.472656 170.871094 170.890625 168.808594 C 167.308594 166.75 159.578125 163.226562 158.792969 163.015625 C 163.734375 159.324219 169.65625 155.335938 175.488281 153.25 C 185.320312 156.996094 201.113281 166.273438 204.644531 169.40625 C 203.402344 171.175781 192.328125 177.828125 185.5625 180.644531 " fill-opacity="1" fill-rule="nonzero"/><path fill="#ffb82b" d="M 156.753906 162.128906 C 157.335938 162.34375 158.214844 162.703125 158.792969 163.015625 C 158.285156 163.425781 157.589844 164.023438 156.925781 164.601562 C 156.65625 164 156.601562 163.011719 156.746094 162.160156 L 156.753906 162.128906 " fill-opacity="1" fill-rule="nonzero"/><path fill="#e68d00" d="M 162.707031 156.605469 C 167.265625 153.714844 171.664062 152.8125 172.332031 152.664062 C 173 152.515625 173.527344 152.601562 173.953125 152.707031 C 174.375 152.8125 175.148438 153.109375 175.488281 153.25 C 169.65625 155.335938 163.734375 159.324219 158.792969 163.015625 C 158.214844 162.703125 157.335938 162.34375 156.753906 162.128906 C 156.957031 161.183594 159.300781 158.757812 162.707031 156.605469 " fill-opacity="1" fill-rule="nonzero"/><path fill="#e67300" d="M 150.503906 169.132812 C 150.566406 169.578125 151.1875 170.121094 151.375 170.710938 C 151.566406 171.300781 151.265625 172.015625 150.964844 172.574219 C 150.660156 173.128906 150.042969 174.054688 149.785156 174.085938 C 149.65625 174.101562 149.539062 174.046875 149.414062 173.890625 C 149.300781 173.742188 149.179688 173.503906 149.039062 173.148438 C 148.992188 172.667969 149.734375 169.410156 150.644531 168.121094 C 150.59375 168.34375 150.4375 168.6875 150.503906 169.132812 " fill-opacity="1" fill-rule="nonzero"/><path fill="#ffa81c" d="M 220.871094 185.222656 C 223.425781 188.429688 226.847656 192.539062 228.082031 198.714844 C 228.144531 198.648438 228.210938 198.578125 228.273438 198.507812 C 228.097656 197.394531 227.855469 196.175781 228.003906 194.925781 C 228.132812 193.828125 228.226562 191.980469 227.320312 190.867188 C 225.867188 189.46875 222.527344 186.792969 220.871094 185.222656 " fill-opacity="1" fill-rule="nonzero"/><path fill="#ffb82b" d="M 186.054688 180.433594 C 186.964844 181.703125 190.058594 186.078125 191.230469 187.894531 C 192.542969 189.933594 195.554688 194.796875 196.445312 195.410156 C 197.332031 196.027344 198.921875 196.304688 201.675781 195.769531 C 210.226562 194.121094 216.046875 189.105469 217.292969 187.238281 C 218.5625 185.328125 218.847656 184.308594 218.5625 183.527344 C 218.277344 182.746094 216.863281 181.171875 216.164062 180.40625 C 212.027344 175.882812 205.992188 170.878906 204.441406 169.648438 C 204.523438 169.558594 204.59375 169.476562 204.644531 169.40625 C 211.46875 174.199219 220.078125 184.40625 220.214844 184.5625 C 220.382812 184.746094 220.605469 184.972656 220.871094 185.222656 C 223.425781 188.429688 226.847656 192.539062 228.082031 198.714844 C 224.070312 203.023438 217.804688 206.039062 213.796875 206.941406 C 213.414062 206.527344 209.453125 204.03125 208.4375 203.476562 C 207.417969 202.925781 203.074219 200.632812 200.785156 199.082031 C 198.496094 197.535156 196.464844 196.367188 195.214844 194.753906 C 193.964844 193.140625 191.1875 188.449219 189.046875 185.261719 C 187.988281 183.6875 186.769531 182.089844 185.5625 180.644531 C 185.722656 180.578125 185.890625 180.507812 186.054688 180.433594 " fill-opacity="1" fill-rule="nonzero"/><path fill="#e8eeff" d="M 202.265625 205.960938 C 202.371094 206.429688 202.671875 207.277344 203.117188 207.902344 C 203.5625 208.53125 204.09375 208.988281 205.171875 209.527344 C 206.265625 210.078125 209.476562 210.347656 211.117188 210.121094 C 211.851562 210.019531 212.59375 209.863281 213.324219 209.691406 C 214.183594 208.890625 213.328125 207.796875 212.589844 206.980469 C 211.960938 206.359375 211.042969 205.953125 210.300781 205.808594 C 209.117188 205.582031 206.589844 205.832031 204.644531 205.53125 C 203.917969 205.421875 203.285156 205.277344 202.878906 205.339844 C 202.472656 205.40625 202.164062 205.492188 202.265625 205.960938 " fill-opacity="1" fill-rule="nonzero"/><path fill="#1f1c63" d="M 213.324219 209.691406 C 217.523438 208.695312 222.449219 206.550781 225.777344 203.796875 C 226.890625 202.878906 228.269531 201.664062 229.222656 200.441406 C 228.433594 200.757812 228.316406 199.535156 228.273438 198.507812 C 228.210938 198.578125 228.144531 198.648438 228.082031 198.714844 C 224.070312 203.023438 217.804688 206.039062 213.796875 206.941406 C 213.535156 206.894531 212.953125 206.925781 212.589844 206.980469 C 213.328125 207.796875 214.183594 208.890625 213.324219 209.691406 " fill-opacity="1" fill-rule="nonzero"/><path fill="#e8eeff" d="M 228.003906 194.925781 C 227.855469 196.175781 228.097656 197.394531 228.273438 198.507812 C 228.316406 199.535156 228.433594 200.757812 229.222656 200.441406 C 229.761719 199.746094 230.042969 199.199219 230.171875 198.84375 C 230.492188 198 230.492188 196.769531 230.269531 196.152344 C 230.0625 195.617188 229.402344 193.851562 229.074219 193.140625 C 228.746094 192.429688 228.054688 191.472656 227.320312 190.867188 C 228.226562 191.980469 228.132812 193.828125 228.003906 194.925781 " fill-opacity="1" fill-rule="nonzero"/><path fill="#292585" d="M 228.324219 199.25 C 228.335938 199.371094 228.351562 199.484375 228.371094 199.59375 C 226.132812 202.273438 222.484375 204.367188 220.449219 205.402344 C 217.824219 206.738281 215.128906 207.730469 213.394531 208.023438 C 213.347656 207.941406 213.300781 207.867188 213.246094 207.789062 C 216.792969 207.25 224.90625 203.496094 228.324219 199.25 Z M 228.523438 200.121094 C 228.566406 200.210938 228.613281 200.289062 228.667969 200.347656 C 227.257812 202.128906 225.230469 203.796875 222.632812 205.308594 C 218.835938 207.515625 215.761719 208.496094 213.683594 208.929688 C 213.683594 208.84375 213.675781 208.757812 213.660156 208.671875 C 215.71875 208.242188 218.753906 207.269531 222.503906 205.085938 C 225.105469 203.574219 227.128906 201.902344 228.523438 200.121094 " fill-opacity="1" fill-rule="nonzero"/><path fill="#1f1c63" d="M 191.507812 187.5625 C 193.578125 190.753906 196.195312 194.957031 196.96875 195.292969 C 197.445312 195.5 199.527344 195.835938 202.433594 195.007812 C 205.34375 194.179688 209.410156 192.445312 211.824219 190.820312 C 214.242188 189.195312 217.085938 186.457031 217.625 185.167969 C 218.164062 183.878906 217.898438 183.226562 216.976562 182.046875 C 214.199219 178.496094 208.242188 173.207031 204.753906 170.375 C 199.796875 173.894531 192.835938 177.8125 186.910156 180.710938 C 187.832031 181.867188 189.90625 185.097656 191.507812 187.5625 Z M 204.441406 169.648438 C 205.992188 170.878906 212.027344 175.882812 216.164062 180.40625 C 216.863281 181.171875 218.277344 182.746094 218.5625 183.527344 C 218.847656 184.308594 218.5625 185.328125 217.292969 187.238281 C 216.046875 189.105469 210.226562 194.121094 201.675781 195.769531 C 198.921875 196.304688 197.332031 196.027344 196.445312 195.410156 C 195.554688 194.796875 192.542969 189.933594 191.230469 187.894531 C 190.058594 186.078125 186.964844 181.703125 186.03125 180.445312 C 192.546875 177.648438 202.550781 171.664062 204.441406 169.648438 " fill-opacity="1" fill-rule="nonzero"/><path fill="#292585" d="M 204.753906 170.375 C 208.242188 173.207031 214.199219 178.496094 216.976562 182.046875 C 217.898438 183.226562 218.164062 183.878906 217.625 185.167969 C 217.085938 186.457031 214.242188 189.195312 211.824219 190.820312 C 209.410156 192.445312 205.34375 194.179688 202.433594 195.007812 C 199.527344 195.835938 197.445312 195.5 196.96875 195.292969 C 196.195312 194.957031 193.578125 190.753906 191.507812 187.5625 C 189.90625 185.097656 187.832031 181.867188 186.910156 180.710938 C 192.835938 177.8125 199.796875 173.894531 204.753906 170.375 " fill-opacity="1" fill-rule="nonzero"/><path fill="#e67300" d="M 197.316406 195.824219 C 197.359375 195.835938 197.40625 195.847656 197.453125 195.863281 C 197.472656 195.953125 197.488281 196.042969 197.503906 196.132812 C 197.691406 197.15625 197.886719 198.210938 198.847656 199.511719 C 199.515625 200.417969 201.402344 201.882812 203.226562 203.300781 C 204.34375 204.167969 205.40625 204.992188 206.171875 205.671875 C 206.105469 205.671875 206.035156 205.667969 205.96875 205.664062 C 205.214844 205.003906 204.207031 204.222656 203.148438 203.402344 C 201.316406 201.980469 199.425781 200.507812 198.742188 199.589844 C 197.765625 198.261719 197.570312 197.191406 197.378906 196.15625 C 197.359375 196.046875 197.335938 195.933594 197.316406 195.824219 " fill-opacity="1" fill-rule="nonzero"/><path fill="#ffa81c" d="M 212.300781 176.035156 C 212.242188 175.699219 212.328125 175.410156 212.507812 175.105469 C 212.714844 174.753906 213.257812 174.164062 213.464844 174.054688 C 213.667969 173.941406 214.050781 174.164062 214.289062 174.402344 C 214.527344 174.644531 214.972656 175.433594 215.035156 176.070312 C 215.09375 176.664062 214.90625 177.558594 214.453125 178.21875 C 213.765625 177.507812 213.042969 176.773438 212.300781 176.035156 " fill-opacity="1" fill-rule="nonzero"/><path fill="#1f1c63" d="M 163.792969 168.132812 C 162.628906 167.664062 161.863281 167.472656 161.269531 167.347656 C 160.679688 167.21875 160.210938 167.21875 159.789062 167.789062 C 159.363281 168.363281 158.113281 170.550781 157.074219 172.546875 C 157.878906 172.992188 160.742188 175.09375 161.714844 175.773438 C 162.054688 174.011719 163.496094 169.023438 163.792969 168.132812 Z M 171.421875 182.480469 C 171.90625 179.488281 173.285156 174.859375 173.878906 173.183594 C 170.574219 171.039062 167.796875 169.59375 164.238281 168.214844 C 163.855469 168.894531 162.882812 172.589844 162.097656 176.027344 C 162.796875 176.472656 170 181.484375 171.421875 182.480469 Z M 188.242188 193.304688 C 188.402344 191.902344 188.816406 189.292969 189.054688 188.050781 C 188.671875 187.378906 185.9375 183.464844 183.714844 180.917969 C 181.488281 178.367188 177.605469 175.445312 175.953125 174.394531 C 175.316406 176.496094 174.769531 179.59375 174.324219 184.277344 C 175.054688 184.753906 183.792969 190.597656 188.242188 193.304688 Z M 191.972656 195.558594 C 192.457031 195.84375 192.726562 195.746094 192.675781 195.460938 C 192.5 194.402344 190.699219 190.796875 190.148438 189.863281 C 190.039062 191 189.878906 192.96875 189.789062 194.199219 C 190.257812 194.476562 191.359375 195.199219 191.972656 195.558594 Z M 159.492188 167.515625 C 159.894531 166.984375 160.0625 166.6875 161.523438 166.964844 C 162.988281 167.238281 166.3125 168.554688 168.09375 169.382812 C 169.875 170.210938 173.199219 172.121094 174.914062 173.140625 C 176.632812 174.160156 180.847656 177.238281 183.476562 180.019531 C 186.105469 182.800781 188.5625 186.578125 189.832031 188.597656 C 191.105469 190.613281 192.90625 194.265625 193.414062 195.769531 C 193.582031 196.273438 193.160156 196.726562 192.585938 196.515625 C 192.015625 196.300781 184.558594 191.609375 182.523438 190.292969 C 180.488281 188.976562 168.769531 181.292969 166.164062 179.488281 C 163.558594 177.683594 157.140625 173.140625 156.546875 172.675781 C 157.859375 169.894531 159.089844 168.046875 159.492188 167.515625 " fill-opacity="1" fill-rule="nonzero"/><path fill="#ffa81c" d="M 173.824219 187.1875 C 174.59375 186.546875 175.660156 187.589844 175.621094 188.539062 C 175.613281 188.714844 175.582031 188.855469 175.539062 188.960938 L 173.53125 187.691406 C 173.589844 187.492188 173.695312 187.292969 173.824219 187.1875 " fill-opacity="1" fill-rule="nonzero"/><path fill="#fed645" d="M 175.539062 188.960938 C 175.445312 189.195312 175.285156 189.285156 175.152344 189.339844 C 174.554688 189.589844 173.460938 188.890625 173.480469 187.992188 C 173.484375 187.898438 173.5 187.796875 173.53125 187.691406 L 175.539062 188.960938 " fill-opacity="1" fill-rule="nonzero"/><path fill="#cdcde6" d="M 175.695312 188.84375 C 175.8125 188.921875 175.800781 189.207031 175.609375 189.265625 C 175.421875 189.324219 175.023438 189.035156 174.71875 188.835938 C 172.882812 187.625 172.703125 187.484375 172.695312 187.316406 C 172.6875 187.15625 172.761719 187 172.882812 187.023438 L 175.695312 188.84375 " fill-opacity="1" fill-rule="nonzero"/><path fill="#6460c7" d="M 175.609375 189.265625 C 175.800781 189.207031 175.8125 188.921875 175.695312 188.84375 L 172.882812 187.023438 C 172.828125 187.011719 172.78125 187.039062 172.75 187.089844 C 172.796875 187 172.882812 186.914062 172.996094 186.941406 L 175.890625 188.746094 C 176.125 188.929688 175.972656 189.320312 175.722656 189.320312 C 175.589844 189.320312 175.429688 189.269531 175.28125 189.191406 C 175.40625 189.253906 175.527344 189.292969 175.609375 189.265625 " fill-opacity="1" fill-rule="nonzero"/><path fill="#ffa81c" d="M 157.042969 176.234375 C 157.8125 175.589844 158.878906 176.636719 158.839844 177.582031 C 158.832031 177.761719 158.800781 177.898438 158.757812 178.007812 L 156.75 176.738281 C 156.808594 176.539062 156.914062 176.339844 157.042969 176.234375 " fill-opacity="1" fill-rule="nonzero"/><path fill="#fed645" d="M 158.757812 178.007812 C 158.664062 178.238281 158.503906 178.328125 158.375 178.382812 C 157.773438 178.636719 156.683594 177.9375 156.699219 177.039062 C 156.703125 176.945312 156.71875 176.839844 156.75 176.738281 L 158.757812 178.007812 " fill-opacity="1" fill-rule="nonzero"/><path fill="#cdcde6" d="M 158.917969 177.890625 C 159.03125 177.96875 159.019531 178.253906 158.828125 178.3125 C 158.640625 178.371094 158.242188 178.082031 157.9375 177.882812 C 156.101562 176.671875 155.921875 176.527344 155.914062 176.363281 C 155.90625 176.203125 155.980469 176.042969 156.105469 176.066406 L 158.917969 177.890625 " fill-opacity="1" fill-rule="nonzero"/><path fill="#6460c7" d="M 158.828125 178.3125 C 159.019531 178.253906 159.03125 177.96875 158.917969 177.890625 L 156.105469 176.066406 C 156.046875 176.058594 156 176.085938 155.96875 176.132812 C 156.015625 176.042969 156.105469 175.960938 156.214844 175.988281 L 159.109375 177.792969 C 159.34375 177.976562 159.191406 178.363281 158.941406 178.363281 C 158.808594 178.363281 158.648438 178.316406 158.5 178.238281 C 158.625 178.296875 158.746094 178.339844 158.828125 178.3125 " fill-opacity="1" fill-rule="nonzero"/><path fill="#fed645" d="M 189.535156 208.042969 C 188.945312 207.71875 186.546875 206.28125 185.699219 205.75 C 184.851562 205.21875 175.871094 199.828125 174.640625 199.039062 C 173.410156 198.253906 167.011719 194.308594 166.058594 193.648438 C 165.195312 193.050781 162.625 191.554688 161.984375 191.03125 C 162.742188 191.046875 163.511719 191.121094 164.183594 191.410156 C 164.960938 191.742188 169.492188 194.671875 171.113281 195.722656 C 176.136719 198.980469 187.300781 205.882812 188.515625 206.644531 C 189.214844 207.085938 189.535156 207.667969 189.679688 208.097656 C 189.640625 208.09375 189.59375 208.074219 189.535156 208.042969 " fill-opacity="1" fill-rule="nonzero"/><path fill="#e67300" d="M 155.128906 175.503906 C 155.210938 175.140625 156.226562 173.121094 156.566406 172.628906 L 156.546875 172.675781 C 156.570312 172.691406 156.601562 172.714844 156.640625 172.746094 C 156.289062 173.285156 155.328125 175.199219 155.253906 175.53125 C 155.175781 175.867188 155.5625 177.246094 156.007812 178.046875 C 156.683594 179.253906 157.574219 180.820312 157.957031 181.417969 C 158.207031 181.8125 158.753906 182.769531 159.230469 183.613281 C 159.578125 184.222656 159.90625 184.796875 160.066406 185.058594 C 160.457031 185.703125 162.566406 190.917969 162.675781 191.296875 C 162.796875 191.703125 163.519531 192.632812 163.988281 192.980469 C 164.234375 193.164062 166.332031 194.488281 168.355469 195.773438 C 169.972656 196.792969 171.636719 197.84375 172.34375 198.304688 C 172.332031 198.203125 172.320312 198.113281 172.308594 198.03125 C 172.285156 197.882812 172.269531 197.753906 172.273438 197.578125 C 172.277344 197.433594 172.316406 197.25 172.351562 197.078125 C 172.394531 196.878906 172.4375 196.675781 172.421875 196.550781 C 172.394531 196.246094 172.21875 194.058594 172.179688 192.914062 C 172.144531 191.933594 172.0625 187.90625 172.195312 186.773438 C 172.292969 185.921875 172.609375 184.597656 172.800781 183.917969 C 172.839844 183.941406 172.875 183.964844 172.914062 183.988281 C 172.722656 184.675781 172.414062 185.976562 172.320312 186.789062 C 172.199219 187.84375 172.257812 191.59375 172.304688 192.910156 C 172.347656 194.109375 172.535156 196.363281 172.550781 196.539062 C 172.5625 196.683594 172.523438 196.886719 172.476562 197.101562 C 172.441406 197.273438 172.402344 197.445312 172.398438 197.582031 C 172.394531 197.746094 172.414062 197.871094 172.433594 198.015625 C 172.449219 198.121094 172.464844 198.242188 172.476562 198.394531 C 173.234375 198.882812 187.363281 207.367188 189.015625 208.34375 C 189.003906 208.097656 189.019531 207.730469 189.027344 207.449219 C 189.035156 207.308594 189.039062 207.191406 189.039062 207.125 C 189.039062 206.90625 189.464844 199.550781 189.546875 198.535156 C 189.617188 197.644531 189.847656 195.730469 190.082031 195.042969 C 190.121094 195.066406 190.15625 195.089844 190.195312 195.109375 C 189.976562 195.78125 189.746094 197.617188 189.671875 198.546875 C 189.59375 199.558594 189.164062 206.90625 189.164062 207.125 C 189.164062 207.191406 189.160156 207.3125 189.15625 207.453125 C 189.144531 207.78125 189.128906 208.230469 189.148438 208.457031 L 189.160156 208.578125 L 189.054688 208.515625 C 188.027344 207.917969 172.769531 198.753906 172.382812 198.484375 C 171.753906 198.070312 169.992188 196.957031 168.289062 195.878906 C 166.261719 194.597656 164.164062 193.269531 163.914062 193.085938 C 163.460938 192.746094 162.691406 191.800781 162.554688 191.332031 C 162.445312 190.957031 160.34375 185.765625 159.957031 185.125 C 159.796875 184.863281 159.46875 184.285156 159.121094 183.675781 C 158.644531 182.835938 158.101562 181.878906 157.847656 181.488281 C 157.464844 180.882812 156.574219 179.316406 155.898438 178.109375 C 155.464844 177.332031 155.039062 175.898438 155.128906 175.503906 " fill-opacity="1" fill-rule="nonzero"/><path fill="#1f1c63" d="M 152.441406 165.964844 C 153.40625 164.742188 155.550781 162.859375 156.777344 162.042969 C 156.769531 162.074219 156.761719 162.101562 156.753906 162.128906 L 156.746094 162.160156 C 155.621094 162.976562 153.773438 164.695312 153.363281 165.191406 C 153.023438 165.601562 152.234375 166.519531 152.367188 166.71875 C 152.46875 166.867188 152.84375 166.84375 153.351562 166.558594 C 153.859375 166.273438 155.5 165.011719 155.914062 164.636719 C 156.414062 164.191406 156.589844 163.914062 156.695312 163.625 C 156.730469 163.996094 156.804688 164.335938 156.925781 164.601562 C 156.625 164.863281 156.332031 165.121094 156.0625 165.359375 C 155.207031 166.125 153.058594 167.796875 152.550781 168.097656 C 152.042969 168.402344 151.742188 168.210938 151.597656 167.910156 C 151.457031 167.605469 151.695312 167.046875 152.441406 165.964844 " fill-opacity="1" fill-rule="nonzero"/><path fill="#403a9e" d="M 153.363281 165.191406 C 153.773438 164.695312 155.621094 162.976562 156.746094 162.167969 C 156.664062 162.640625 156.648438 163.15625 156.695312 163.625 C 156.589844 163.914062 156.414062 164.191406 155.914062 164.636719 C 155.5 165.011719 153.859375 166.273438 153.351562 166.558594 C 152.84375 166.84375 152.46875 166.867188 152.367188 166.71875 C 152.234375 166.519531 153.023438 165.601562 153.363281 165.191406 " fill-opacity="1" fill-rule="nonzero"/><path fill="#403a9e" d="M 204.753906 170.375 C 207.367188 172.496094 211.355469 175.992188 214.363281 179.105469 C 214.125 179.1875 213.835938 179.308594 213.503906 179.460938 C 210.414062 177.355469 205.765625 174.1875 202.335938 172.023438 C 203.183594 171.46875 203.992188 170.917969 204.753906 170.375 " fill-opacity="1" fill-rule="nonzero"/><path fill="#2d288f" d="M 199.191406 174.003906 C 199.601562 174.648438 199.941406 175.664062 200.191406 176.222656 C 200.464844 176.839844 200.898438 178.703125 199.765625 179.679688 C 199.457031 179.949219 194.738281 182.652344 190.039062 185.304688 C 188.804688 183.40625 187.566406 181.53125 186.910156 180.710938 C 190.84375 178.785156 195.234375 176.414062 199.191406 174.003906 " fill-opacity="1" fill-rule="nonzero"/><path fill="#2d288f" d="M 175.953125 174.394531 C 177.605469 175.445312 181.488281 178.367188 183.714844 180.917969 C 185.195312 182.613281 186.898438 184.914062 187.988281 186.460938 C 185.8125 187.683594 183.789062 188.8125 182.382812 189.582031 C 178.5625 187.101562 174.792969 184.582031 174.324219 184.277344 C 174.769531 179.59375 175.316406 176.496094 175.953125 174.394531 " fill-opacity="1" fill-rule="nonzero"/><path fill="#403a9e" d="M 189.054688 188.050781 C 188.816406 189.292969 188.402344 191.902344 188.242188 193.304688 C 186.652344 192.335938 184.507812 190.964844 182.382812 189.582031 C 183.789062 188.8125 185.8125 187.683594 187.988281 186.460938 C 188.535156 187.238281 188.925781 187.824219 189.054688 188.050781 " fill-opacity="1" fill-rule="nonzero"/><path fill="#403a9e" d="M 199.628906 179.777344 C 200.625 180.007812 203.625 180.722656 204.183594 180.859375 C 204.777344 181.003906 206.585938 181.238281 206.832031 183.089844 C 205.417969 183.914062 204.171875 184.65625 203.453125 185.082031 C 201.292969 186.351562 198.65625 187.976562 198.179688 188.070312 C 197.703125 188.167969 196.988281 187.871094 196.480469 187.882812 C 195.480469 187.898438 194.660156 188.152344 193.054688 189.960938 C 192.527344 189.148438 192 188.328125 191.507812 187.5625 C 191.042969 186.851562 190.542969 186.074219 190.039062 185.304688 C 194.398438 182.847656 198.769531 180.34375 199.628906 179.777344 " fill-opacity="1" fill-rule="nonzero"/><path fill="#544fa8" d="M 217.625 185.167969 C 217.085938 186.457031 214.242188 189.195312 211.824219 190.820312 C 209.410156 192.445312 205.34375 194.179688 202.433594 195.007812 C 199.527344 195.835938 197.445312 195.5 196.96875 195.292969 C 196.378906 195.039062 194.722656 192.542969 193.054688 189.960938 C 194.660156 188.152344 195.480469 187.898438 196.480469 187.882812 C 196.988281 187.871094 197.703125 188.167969 198.179688 188.070312 C 198.65625 187.976562 201.292969 186.351562 203.453125 185.082031 C 205.5625 183.835938 212.167969 179.875 214.363281 179.105469 C 215.375 180.152344 216.277344 181.152344 216.976562 182.046875 C 217.898438 183.226562 218.164062 183.878906 217.625 185.167969 " fill-opacity="1" fill-rule="nonzero"/><path fill="#544fa8" d="M 190.148438 189.863281 C 190.699219 190.796875 192.5 194.402344 192.675781 195.460938 C 192.726562 195.746094 192.457031 195.84375 191.972656 195.558594 C 191.359375 195.199219 190.257812 194.476562 189.789062 194.199219 C 189.878906 192.96875 190.039062 191 190.148438 189.863281 " fill-opacity="1" fill-rule="nonzero"/><path fill="#544fa8" d="M 193.753906 187.667969 C 193.402344 187.894531 192.683594 188.457031 192.320312 188.824219 C 192.21875 188.664062 192.117188 188.507812 192.015625 188.351562 C 192.363281 187.941406 193.152344 187.289062 193.773438 186.957031 C 194.453125 186.597656 195.269531 186.375 195.796875 186.683594 C 196.246094 186.941406 196.175781 187.574219 196.074219 187.90625 C 195.238281 187.996094 194.441406 188.398438 193.054688 189.960938 C 192.863281 189.667969 192.675781 189.371094 192.488281 189.082031 C 192.53125 189.027344 192.585938 188.964844 192.652344 188.886719 C 192.917969 188.589844 193.667969 188.464844 193.859375 188.464844 C 194.050781 188.464844 194.464844 188.285156 194.6875 188.1875 C 194.90625 188.09375 195.320312 187.914062 195.394531 187.804688 C 195.46875 187.699219 195.667969 187.386719 195.46875 187.179688 C 195.160156 186.863281 194.167969 187.402344 193.753906 187.667969 " fill-opacity="1" fill-rule="nonzero"/><path fill="#262278" d="M 202.335938 172.023438 C 205.765625 174.1875 210.414062 177.355469 213.503906 179.460938 C 211.828125 180.226562 209.109375 181.765625 206.832031 183.089844 C 206.585938 181.238281 204.777344 181.003906 204.183594 180.859375 C 203.625 180.722656 200.625 180.007812 199.628906 179.777344 C 199.699219 179.734375 199.746094 179.699219 199.765625 179.679688 C 200.898438 178.703125 200.464844 176.839844 200.191406 176.222656 C 199.941406 175.664062 199.601562 174.648438 199.191406 174.003906 C 200.417969 173.257812 202.335938 172.023438 202.335938 172.023438 " fill-opacity="1" fill-rule="nonzero"/><path fill="#2d288f" d="M 173.878906 173.183594 C 173.285156 174.859375 171.90625 179.488281 171.421875 182.480469 C 170 181.484375 162.796875 176.472656 162.097656 176.027344 C 162.882812 172.589844 163.855469 168.894531 164.238281 168.214844 C 167.796875 169.59375 170.574219 171.039062 173.878906 173.183594 Z M 159.132812 172.214844 C 159.3125 171.859375 160.042969 171.28125 160.234375 171.171875 C 160.125 171.105469 159.398438 170.175781 160.371094 169.410156 C 160.957031 168.953125 162.082031 168.464844 163.308594 167.945312 C 163.460938 168 163.621094 168.0625 163.792969 168.132812 C 163.496094 169.023438 162.054688 174.011719 161.714844 175.773438 C 161.195312 175.410156 160.128906 174.636719 159.132812 173.929688 C 158.949219 173.261719 158.894531 172.679688 159.132812 172.214844 " fill-opacity="1" fill-rule="nonzero"/><path fill="#403a9e" d="M 159.140625 173.933594 C 158.269531 173.320312 157.449219 172.753906 157.074219 172.546875 C 158.113281 170.550781 159.363281 168.363281 159.789062 167.789062 C 160.09375 167.378906 160.421875 167.261719 160.804688 167.277344 L 161.3125 167.355469 C 161.8125 167.464844 162.433594 167.617188 163.308594 167.945312 C 162.082031 168.464844 160.957031 168.953125 160.371094 169.410156 C 159.398438 170.175781 160.125 171.105469 160.234375 171.171875 C 160.042969 171.28125 159.3125 171.859375 159.132812 172.214844 C 158.894531 172.679688 158.949219 173.261719 159.132812 173.929688 L 159.140625 173.933594 " fill-opacity="1" fill-rule="nonzero"/><path fill="#ffa81c" d="M 188.433594 193.296875 C 188.03125 191.8125 187.527344 190.875 186.78125 190.21875 C 186.695312 190.144531 186.242188 190.167969 185.5 190.433594 C 184.757812 190.699219 183.539062 191.292969 183.167969 191.726562 C 182.796875 192.164062 182.757812 192.503906 182.757812 192.757812 C 184.164062 193.894531 186.84375 193.488281 188.433594 193.296875 " fill-opacity="1" fill-rule="nonzero"/><path fill="#292585" d="M 182.757812 192.757812 C 184.164062 193.894531 186.84375 193.488281 188.433594 193.296875 C 188.339844 192.957031 188.242188 192.648438 188.140625 192.359375 C 188.304688 192.316406 188.511719 192.273438 188.785156 192.332031 C 189.199219 192.421875 189.433594 192.742188 189.492188 192.9375 C 189.542969 193.101562 189.546875 193.382812 189.304688 193.574219 C 189.132812 193.585938 188.371094 193.753906 187.554688 193.839844 C 186.738281 193.925781 185.128906 193.988281 184.503906 193.925781 C 183.878906 193.859375 183.457031 193.636719 183.074219 193.394531 C 182.691406 193.148438 182.757812 192.992188 182.757812 192.757812 " fill-opacity="1" fill-rule="nonzero"/><path fill="#eba978" d="M 239.179688 219.53125 L 237.597656 218.617188 C 238.242188 218.835938 238.90625 219.058594 239.59375 219.292969 L 239.179688 219.53125 M 240.394531 218.828125 C 240.375 218.824219 240.351562 218.816406 240.328125 218.8125 C 239.042969 218.328125 237.792969 217.867188 236.585938 217.429688 L 244.136719 213.058594 C 245.113281 213.523438 246.003906 213.964844 246.730469 214.359375 C 247.082031 214.421875 247.425781 214.496094 247.757812 214.566406 L 240.394531 218.828125 M 248.5625 214.105469 C 248.046875 213.992188 247.542969 213.894531 247.074219 213.808594 C 246.421875 213.457031 245.65625 213.066406 244.820312 212.664062 L 247.28125 211.238281 C 247.402344 211.167969 247.5625 211.132812 247.722656 211.132812 C 247.882812 211.132812 248.042969 211.167969 248.167969 211.238281 L 250.398438 212.527344 C 250.644531 212.671875 250.644531 212.898438 250.398438 213.039062 L 248.5625 214.105469 " fill-opacity="1" fill-rule="nonzero"/><path fill="#e18d4f" d="M 239.59375 219.292969 C 238.90625 219.058594 238.242188 218.835938 237.597656 218.617188 L 236.0625 217.730469 L 236.585938 217.429688 C 237.792969 217.867188 239.042969 218.328125 240.328125 218.8125 C 240.351562 218.816406 240.375 218.824219 240.394531 218.828125 L 239.59375 219.292969 " fill-opacity="1" fill-rule="nonzero"/><path fill="#e18d4f" d="M 247.757812 214.566406 C 247.425781 214.496094 247.082031 214.421875 246.730469 214.359375 C 246.003906 213.964844 245.113281 213.523438 244.136719 213.058594 L 244.820312 212.664062 C 245.65625 213.066406 246.421875 213.457031 247.074219 213.808594 C 247.542969 213.894531 248.046875 213.992188 248.5625 214.105469 L 247.757812 214.566406 " fill-opacity="1" fill-rule="nonzero"/><path fill="#eba978" d="M 224.664062 230.9375 C 223.570312 230.9375 222.472656 230.699219 221.636719 230.214844 L 215.832031 226.855469 C 214.160156 225.890625 214.160156 224.320312 215.832031 223.351562 L 221.214844 220.238281 C 224.949219 221.210938 230.480469 223.632812 232.546875 227.40625 L 227.695312 230.214844 C 226.855469 230.699219 225.761719 230.9375 224.664062 230.9375 M 233.335938 226.949219 C 231.03125 223.277344 225.855469 220.78125 222.183594 219.679688 L 227.777344 216.441406 C 228.207031 216.195312 228.699219 216.011719 229.230469 215.890625 C 231.136719 216.476562 233.257812 217.164062 235.65625 217.964844 L 234.179688 218.820312 L 237.296875 220.625 L 239.179688 219.53125 L 239.640625 219.796875 C 241.3125 220.765625 241.3125 222.335938 239.640625 223.300781 L 233.335938 226.949219 M 233.875 216.460938 C 233.226562 216.238281 232.59375 216.019531 231.976562 215.808594 C 232.660156 215.921875 233.300781 216.132812 233.835938 216.441406 L 233.875 216.460938 " fill-opacity="1" fill-rule="nonzero"/><path fill="#e18d4f" d="M 232.546875 227.40625 C 230.480469 223.632812 224.949219 221.210938 221.214844 220.238281 L 222.183594 219.679688 C 225.855469 220.78125 231.03125 223.277344 233.335938 226.949219 L 232.546875 227.40625 " fill-opacity="1" fill-rule="nonzero"/><path fill="#e18d4f" d="M 235.65625 217.964844 C 233.257812 217.164062 231.136719 216.476562 229.230469 215.890625 C 229.734375 215.773438 230.273438 215.714844 230.808594 215.714844 C 231.203125 215.714844 231.597656 215.746094 231.976562 215.808594 C 232.59375 216.019531 233.226562 216.238281 233.875 216.460938 L 236.0625 217.730469 L 235.65625 217.964844 " fill-opacity="1" fill-rule="nonzero"/><path fill="#d99b77" d="M 237.296875 220.625 L 234.179688 218.820312 L 235.65625 217.964844 C 236.285156 218.175781 236.929688 218.390625 237.597656 218.617188 L 239.179688 219.53125 L 237.296875 220.625 " fill-opacity="1" fill-rule="nonzero"/><path fill="#cf824e" d="M 237.597656 218.617188 C 236.929688 218.390625 236.285156 218.175781 235.65625 217.964844 L 236.0625 217.730469 L 237.597656 218.617188 " fill-opacity="1" fill-rule="nonzero"/><path fill="#9a9ae6" d="M 237.453125 216.734375 L 250.148438 209.390625 C 250.265625 209.324219 250.324219 209.234375 250.324219 209.144531 L 250.324219 210.089844 C 250.324219 210.179688 250.265625 210.269531 250.148438 210.339844 L 237.453125 217.683594 L 234.433594 215.9375 L 235.253906 215.464844 L 237.453125 216.734375 " fill-opacity="1" fill-rule="nonzero"/><path fill="#b8b8e6" d="M 247.128906 207.644531 L 234.433594 214.988281 L 237.453125 216.734375 L 250.148438 209.390625 C 250.382812 209.253906 250.382812 209.03125 250.148438 208.894531 L 247.984375 207.644531 C 247.75 207.507812 247.363281 207.507812 247.128906 207.644531 " fill-opacity="1" fill-rule="nonzero"/><path fill="#6964d4" d="M 245.671875 210.757812 L 244.914062 210.585938 L 243.738281 211.265625 L 244.042969 211.703125 L 242.964844 212.324219 L 243.238281 212.71875 L 240.613281 214.234375 L 239.933594 214.078125 L 237.4375 215.523438 L 236.53125 215 L 239.191406 213.460938 L 238.878906 213.003906 L 240.011719 212.347656 L 240.796875 212.53125 L 241.730469 211.988281 L 241.417969 211.53125 L 244.042969 210.015625 L 244.828125 210.195312 L 246.292969 209.347656 L 246.503906 208.550781 L 248.414062 207.980469 C 248.449219 207.96875 248.488281 207.960938 248.523438 207.957031 L 249.609375 208.582031 C 249.597656 208.605469 249.585938 208.625 249.566406 208.644531 L 248.578125 209.753906 L 247.203125 209.875 L 245.671875 210.757812 " fill-opacity="1" fill-rule="nonzero"/><path fill="#544fa8" d="M 240.613281 214.234375 L 239.933594 214.078125 L 237.4375 215.523438 L 236.804688 215.15625 L 239.191406 213.777344 L 239.191406 213.460938 L 239.035156 213.230469 L 240.011719 212.667969 L 240.796875 212.847656 L 241.730469 212.304688 L 241.730469 211.988281 L 241.574219 211.761719 L 244.042969 210.332031 L 244.828125 210.515625 L 246.292969 209.664062 L 246.503906 208.871094 L 248.414062 208.296875 C 248.449219 208.285156 248.488281 208.28125 248.523438 208.273438 L 249.429688 208.800781 L 248.578125 209.753906 L 247.203125 209.875 L 245.671875 210.757812 L 244.914062 210.585938 L 243.738281 211.265625 L 243.738281 211.582031 L 243.882812 211.792969 L 242.964844 212.324219 L 242.964844 212.640625 L 243.078125 212.808594 L 240.613281 214.234375 " fill-opacity="1" fill-rule="nonzero"/><path fill="#1f1c63" d="M 216.734375 223.375 L 222.066406 226.460938 C 223.605469 227.347656 226.09375 227.347656 227.632812 226.460938 L 238.609375 220.109375 C 239.378906 219.664062 239.761719 219.082031 239.761719 218.5 L 239.761719 221.324219 C 239.761719 221.90625 239.378906 222.492188 238.609375 222.9375 L 227.632812 229.285156 C 226.09375 230.175781 223.605469 230.175781 222.066406 229.285156 L 216.734375 226.203125 C 215.964844 225.757812 215.582031 225.175781 215.582031 224.589844 L 215.582031 221.765625 C 215.582031 222.347656 215.964844 222.929688 216.734375 223.375 " fill-opacity="1" fill-rule="nonzero"/><path fill="#403a9e" d="M 216.734375 223.375 L 222.066406 226.460938 C 223.605469 227.347656 226.09375 227.347656 227.632812 226.460938 L 238.609375 220.109375 C 240.148438 219.21875 240.148438 217.777344 238.609375 216.890625 L 233.277344 213.804688 C 231.742188 212.914062 229.25 212.914062 227.710938 213.804688 L 216.734375 220.15625 C 215.195312 221.042969 215.195312 222.484375 216.734375 223.375 " fill-opacity="1" fill-rule="nonzero"/><path fill="#afafe6" d="M 235.441406 218.398438 C 236.125 218.796875 237.230469 218.796875 237.914062 218.398438 C 238.257812 218.203125 238.429688 217.945312 238.429688 217.683594 L 238.429688 218.320312 C 238.429688 218.578125 238.257812 218.835938 237.914062 219.035156 C 237.230469 219.429688 236.125 219.429688 235.441406 219.035156 C 235.097656 218.835938 234.929688 218.578125 234.929688 218.320312 L 234.929688 217.683594 C 234.929688 217.945312 235.097656 218.203125 235.441406 218.398438 " fill-opacity="1" fill-rule="nonzero"/><path fill="#cdcde6" d="M 235.441406 216.96875 C 234.757812 217.363281 234.757812 218.003906 235.441406 218.398438 C 236.125 218.796875 237.230469 218.796875 237.914062 218.398438 C 238.597656 218.003906 238.597656 217.363281 237.914062 216.96875 C 237.230469 216.574219 236.125 216.574219 235.441406 216.96875 " fill-opacity="1" fill-rule="nonzero"/><path fill="#544fa8" d="M 230.242188 216.589844 L 233.796875 218.644531 C 235.191406 219.453125 235.191406 220.761719 233.796875 221.570312 L 233.289062 221.863281 C 232.96875 222.046875 232.449219 222.046875 232.128906 221.863281 L 224.679688 217.554688 C 224.359375 217.367188 224.359375 217.066406 224.679688 216.882812 L 225.183594 216.589844 C 226.578125 215.78125 228.84375 215.78125 230.242188 216.589844 " fill-opacity="1" fill-rule="nonzero"/><path fill="#544fa8" d="M 226.992188 225.507812 C 225.59375 226.316406 223.328125 226.316406 221.933594 225.507812 L 218.378906 223.453125 C 216.984375 222.644531 216.984375 221.332031 218.378906 220.527344 L 218.882812 220.234375 C 219.203125 220.046875 219.722656 220.046875 220.042969 220.234375 L 227.496094 224.542969 C 227.816406 224.730469 227.816406 225.03125 227.496094 225.214844 L 226.992188 225.507812 " fill-opacity="1" fill-rule="nonzero"/><path fill="#544fa8" d="M 228.175781 224.152344 L 220.726562 219.839844 C 220.402344 219.65625 220.402344 219.355469 220.726562 219.167969 L 222.839844 217.945312 C 223.160156 217.761719 223.679688 217.761719 224 217.945312 L 231.449219 222.257812 C 231.769531 222.441406 231.769531 222.742188 231.449219 222.929688 L 229.335938 224.152344 C 229.015625 224.335938 228.496094 224.335938 228.175781 224.152344 " fill-opacity="1" fill-rule="nonzero"/><path fill="#cdcde6" d="M 226.746094 221.4375 C 226.816406 221.480469 226.816406 221.546875 226.746094 221.585938 L 226.214844 221.894531 C 225.929688 222.058594 225.457031 222.058594 225.171875 221.894531 L 224.378906 221.433594 C 224.089844 221.269531 224.085938 220.996094 224.375 220.832031 L 224.90625 220.523438 C 224.976562 220.484375 225.089844 220.484375 225.160156 220.523438 Z M 224.175781 221.550781 L 224.96875 222.011719 C 225.367188 222.242188 226.019531 222.242188 226.417969 222.011719 L 226.949219 221.703125 C 227.128906 221.597656 227.128906 221.425781 226.949219 221.320312 L 225.363281 220.40625 C 225.179688 220.300781 224.886719 220.300781 224.703125 220.40625 L 224.171875 220.714844 C 223.773438 220.945312 223.773438 221.320312 224.175781 221.550781 " fill-opacity="1" fill-rule="nonzero"/><path fill="#cdcde6" d="M 225.152344 221.070312 C 225.332031 220.96875 225.621094 220.96875 225.796875 221.070312 C 225.976562 221.171875 225.976562 221.339844 225.800781 221.445312 C 225.683594 221.511719 225.515625 221.535156 225.367188 221.511719 L 225.1875 221.617188 C 225.136719 221.644531 225.050781 221.644531 225 221.617188 L 224.859375 221.535156 C 224.804688 221.503906 224.804688 221.457031 224.859375 221.425781 L 225.035156 221.320312 C 224.996094 221.234375 225.035156 221.136719 225.152344 221.070312 " fill-opacity="1" fill-rule="nonzero"/><path fill="#cdcde6" d="M 226.636719 221.375 C 226.691406 221.40625 226.78125 221.40625 226.839844 221.375 C 227.441406 221.027344 228.261719 220.929688 228.667969 221.164062 C 229.074219 221.398438 228.910156 221.875 228.304688 222.222656 C 228.25 222.253906 228.25 222.308594 228.304688 222.339844 C 228.363281 222.375 228.453125 222.375 228.507812 222.339844 C 229.226562 221.925781 229.386719 221.34375 228.871094 221.046875 C 228.351562 220.75 227.351562 220.84375 226.636719 221.257812 C 226.578125 221.292969 226.578125 221.34375 226.636719 221.375 " fill-opacity="1" fill-rule="nonzero"/><path fill="#cdcde6" d="M 221.367188 223.863281 L 220.34375 223.269531 C 220.265625 223.226562 220.230469 223.164062 220.25 223.101562 C 220.265625 223.039062 220.335938 222.988281 220.433594 222.960938 L 220.976562 222.804688 C 221.105469 222.769531 221.261719 222.78125 221.363281 222.839844 L 222.820312 223.683594 C 222.953125 223.757812 222.953125 223.882812 222.820312 223.957031 L 222.789062 223.976562 C 222.390625 223.789062 221.84375 223.746094 221.367188 223.863281 Z M 220.140625 223.386719 L 221.308594 224.0625 L 221.402344 224.035156 C 221.832031 223.90625 222.351562 223.953125 222.695312 224.148438 L 222.792969 224.207031 L 223.023438 224.074219 C 223.265625 223.933594 223.265625 223.707031 223.023438 223.566406 L 221.566406 222.722656 C 221.378906 222.617188 221.089844 222.589844 220.851562 222.65625 L 220.308594 222.8125 C 220.125 222.863281 220 222.957031 219.96875 223.074219 C 219.933594 223.191406 219.996094 223.304688 220.140625 223.386719 " fill-opacity="1" fill-rule="nonzero"/><path fill="#cdcde6" d="M 221.5625 224.214844 C 221.335938 224.347656 221.335938 224.558594 221.5625 224.691406 C 221.792969 224.824219 222.164062 224.824219 222.390625 224.691406 C 222.617188 224.558594 222.617188 224.34375 222.390625 224.214844 C 222.160156 224.082031 221.789062 224.082031 221.5625 224.214844 " fill-opacity="1" fill-rule="nonzero"/><path fill="#cdcde6" d="M 222.789062 223.664062 C 222.820312 223.683594 222.867188 223.691406 222.917969 223.6875 C 222.996094 223.675781 223.042969 223.632812 223.027344 223.589844 L 222.574219 222.316406 C 222.5625 222.28125 222.507812 222.253906 222.445312 222.25 L 221.835938 222.226562 C 221.757812 222.226562 221.691406 222.261719 221.683594 222.304688 C 221.679688 222.351562 221.742188 222.390625 221.820312 222.394531 L 222.316406 222.414062 L 222.75 223.621094 L 222.789062 223.664062 " fill-opacity="1" fill-rule="nonzero"/><path fill="#cdcde6" d="M 230.867188 219.050781 C 230.9375 219.089844 230.9375 219.15625 230.867188 219.199219 L 230.335938 219.503906 C 230.050781 219.671875 229.578125 219.671875 229.292969 219.503906 L 228.5 219.046875 C 228.210938 218.882812 228.210938 218.609375 228.496094 218.441406 L 229.027344 218.136719 C 229.097656 218.09375 229.210938 218.09375 229.28125 218.136719 Z M 228.296875 219.164062 L 229.089844 219.625 C 229.488281 219.855469 230.140625 219.855469 230.539062 219.621094 L 231.070312 219.316406 C 231.253906 219.210938 231.253906 219.039062 231.070312 218.933594 L 229.484375 218.019531 C 229.300781 217.914062 229.007812 217.914062 228.824219 218.019531 L 228.292969 218.324219 C 227.894531 218.558594 227.894531 218.933594 228.296875 219.164062 " fill-opacity="1" fill-rule="nonzero"/><path fill="#cdcde6" d="M 229.238281 217.992188 L 229.441406 218.109375 C 230.046875 217.761719 230.867188 217.667969 231.269531 217.898438 C 231.675781 218.132812 231.515625 218.609375 230.910156 218.957031 L 231.113281 219.074219 C 231.828125 218.660156 231.988281 218.082031 231.472656 217.785156 C 230.957031 217.484375 229.953125 217.578125 229.238281 217.992188 " fill-opacity="1" fill-rule="nonzero"/><path fill="#cdcde6" d="M 229.257812 218.695312 C 229.433594 218.589844 229.722656 218.589844 229.902344 218.695312 C 230.078125 218.796875 230.078125 218.964844 229.902344 219.066406 C 229.785156 219.132812 229.621094 219.15625 229.46875 219.136719 L 229.292969 219.238281 C 229.238281 219.269531 229.152344 219.269531 229.101562 219.238281 L 228.960938 219.15625 C 228.90625 219.125 228.90625 219.078125 228.960938 219.046875 L 229.140625 218.945312 C 229.101562 218.855469 229.140625 218.761719 229.257812 218.695312 " fill-opacity="1" fill-rule="nonzero"/></svg>